<?xml version="1.0" encoding="utf-8"?>
<!-- Generator: Adobe Illustrator 16.0.0, SVG Export Plug-In . SVG Version: 6.00 Build 0)  -->
<!DOCTYPE svg PUBLIC "-//W3C//DTD SVG 1.1//EN" "http://www.w3.org/Graphics/SVG/1.1/DTD/svg11.dtd">
<svg version="1.1" id="Layer_1" xmlns="http://www.w3.org/2000/svg" xmlns:xlink="http://www.w3.org/1999/xlink" x="0px" y="0px"
	 width="903.471px" height="201px" viewBox="0 8.745 903.471 201" enable-background="new 0 8.745 903.471 201"
	 xml:space="preserve">
<g id="Livello_x0020_1" transform="translate(9.0774947,-38070.588)">
	<g id="g3000" transform="matrix(0.04824549,0,0,0.04824549,0,38079.698)">
		<path id="path13" fill="#0DADEA" d="M269.714,710.496l334.788-46.03v323.068H269.744L269.714,710.496z M604.502,1028.888v319.404
			l-334.748-45.928l-0.01-273.477H604.502L604.502,1028.888L604.502,1028.888z M641.544,659.386l445.46-61.242v389.391h-445.46
			V659.386z M1087.004,1028.888v385.656l-445.46-61.171v-324.475h445.46V1028.888z"/>
		<g id="flowRoot2989" transform="matrix(89.561227,0,0,88.070452,150957.32,17842.049)">
			<path id="path3031" fill="#00ADEF" d="M-1664.94-188.421h-0.864v-3.398c0-0.278,0.017-0.619,0.051-1.022h-0.015
				c-0.054,0.23-0.101,0.394-0.143,0.494l-1.567,3.925h-0.601l-1.571-3.895c-0.044-0.115-0.09-0.289-0.139-0.523h-0.015
				c0.02,0.21,0.029,0.553,0.029,1.029v3.39h-0.806v-5.25h1.227l1.38,3.496c0.105,0.268,0.173,0.469,0.205,0.6h0.018
				c0.09-0.276,0.163-0.481,0.22-0.615l1.406-3.482h1.183L-1664.94-188.421z"/>
			<path id="path3033" fill="#00ADEF" d="M-1663.318-192.957c-0.139,0-0.258-0.045-0.357-0.135c-0.099-0.09-0.148-0.205-0.148-0.344
				c0-0.139,0.049-0.255,0.148-0.348c0.099-0.092,0.218-0.139,0.357-0.139c0.144,0,0.266,0.047,0.366,0.139
				c0.1,0.093,0.15,0.208,0.15,0.348c0,0.131-0.05,0.245-0.15,0.339C-1663.052-193.004-1663.174-192.957-1663.318-192.957z
				 M-1662.897-188.421h-0.849v-3.749h0.849V-188.421z"/>
			<path id="path3035" fill="#00ADEF" d="M-1659.1-188.593c-0.3,0.173-0.656,0.26-1.065,0.26c-0.557,0-1.006-0.174-1.347-0.522
				c-0.342-0.348-0.513-0.798-0.513-1.352c0-0.618,0.184-1.114,0.551-1.488c0.367-0.375,0.858-0.562,1.474-0.562
				c0.342,0,0.643,0.06,0.904,0.179v0.791c-0.261-0.195-0.539-0.293-0.835-0.293c-0.359,0-0.653,0.121-0.882,0.364
				c-0.229,0.243-0.344,0.561-0.344,0.954c0,0.388,0.108,0.694,0.324,0.919c0.216,0.225,0.506,0.337,0.87,0.337
				c0.305,0,0.593-0.109,0.864-0.326L-1659.1-188.593z"/>
			<path id="path3037" fill="#00ADEF" d="M-1656.08-191.361c-0.103-0.081-0.25-0.121-0.443-0.121c-0.251,0-0.462,0.113-0.63,0.341
				c-0.168,0.227-0.253,0.536-0.253,0.926v1.794h-0.849v-3.749h0.849v0.772h0.015c0.083-0.263,0.21-0.469,0.383-0.617
				c0.172-0.148,0.364-0.222,0.577-0.222c0.154,0,0.271,0.024,0.352,0.07L-1656.08-191.361z"/>
			<path id="path3039" fill="#00ADEF" d="M-1653.81-188.333c-0.578,0-1.04-0.175-1.386-0.525c-0.345-0.35-0.518-0.815-0.518-1.393
				c0-0.63,0.18-1.122,0.54-1.475c0.36-0.354,0.845-0.531,1.456-0.531c0.586,0,1.042,0.172,1.369,0.516
				c0.327,0.344,0.49,0.821,0.49,1.431c0,0.598-0.176,1.077-0.529,1.437C-1652.74-188.513-1653.214-188.333-1653.81-188.333
				L-1653.81-188.333z M-1653.769-191.581c-0.332,0-0.595,0.116-0.787,0.347c-0.193,0.232-0.289,0.552-0.289,0.959
				c0,0.393,0.098,0.702,0.293,0.928c0.195,0.226,0.457,0.339,0.784,0.339c0.335,0,0.591-0.111,0.771-0.333
				c0.179-0.222,0.27-0.538,0.27-0.949c0-0.412-0.09-0.731-0.27-0.955C-1653.178-191.469-1653.435-191.581-1653.769-191.581
				L-1653.769-191.581z"/>
			<path id="path3041" fill="#00ADEF" d="M-1651.225-188.538v-0.787c0.318,0.242,0.668,0.362,1.051,0.362
				c0.513,0,0.769-0.151,0.769-0.454c0-0.086-0.022-0.158-0.066-0.218c-0.044-0.06-0.103-0.113-0.177-0.159
				c-0.075-0.046-0.162-0.088-0.264-0.125c-0.102-0.036-0.214-0.078-0.339-0.124c-0.154-0.061-0.292-0.126-0.416-0.194
				c-0.123-0.068-0.226-0.146-0.307-0.232c-0.082-0.087-0.144-0.185-0.185-0.295c-0.042-0.11-0.062-0.238-0.062-0.384
				c0-0.181,0.043-0.34,0.128-0.478c0.085-0.138,0.2-0.254,0.344-0.347c0.144-0.094,0.307-0.165,0.491-0.213
				c0.183-0.048,0.372-0.071,0.567-0.071c0.346,0,0.656,0.052,0.93,0.157v0.743c-0.264-0.18-0.566-0.271-0.908-0.271
				c-0.107,0-0.204,0.011-0.291,0.033c-0.087,0.022-0.161,0.052-0.222,0.091c-0.061,0.039-0.109,0.086-0.143,0.141
				c-0.034,0.055-0.052,0.115-0.052,0.181c0,0.081,0.017,0.149,0.052,0.205c0.034,0.056,0.085,0.106,0.152,0.148
				c0.067,0.043,0.147,0.082,0.242,0.117c0.094,0.035,0.202,0.074,0.324,0.115c0.161,0.066,0.306,0.133,0.434,0.202
				c0.128,0.068,0.238,0.146,0.328,0.232c0.09,0.087,0.16,0.187,0.209,0.301c0.048,0.113,0.073,0.248,0.073,0.404
				c0,0.191-0.043,0.356-0.132,0.498c-0.088,0.142-0.205,0.259-0.351,0.351c-0.147,0.093-0.316,0.162-0.507,0.207
				c-0.192,0.046-0.394,0.068-0.606,0.068C-1650.57-188.333-1650.924-188.401-1651.225-188.538z"/>
			<path id="path3043" fill="#00ADEF" d="M-1646.092-188.333c-0.578,0-1.041-0.175-1.386-0.525c-0.345-0.35-0.518-0.815-0.518-1.393
				c0-0.63,0.18-1.122,0.54-1.475c0.36-0.354,0.845-0.531,1.455-0.531c0.586,0,1.042,0.172,1.37,0.516
				c0.327,0.344,0.491,0.821,0.491,1.431c0,0.598-0.176,1.077-0.529,1.437C-1645.022-188.513-1645.496-188.333-1646.092-188.333
				L-1646.092-188.333z M-1646.052-191.581c-0.332,0-0.594,0.116-0.787,0.347c-0.193,0.232-0.289,0.552-0.289,0.959
				c0,0.393,0.098,0.702,0.293,0.928s0.456,0.339,0.784,0.339c0.334,0,0.591-0.111,0.771-0.333c0.179-0.222,0.269-0.538,0.269-0.949
				c0-0.412-0.09-0.731-0.269-0.955C-1645.46-191.469-1645.717-191.581-1646.052-191.581z"/>
			<path id="path3045" fill="#00ADEF" d="M-1641.153-193.279c-0.114-0.066-0.245-0.099-0.392-0.099
				c-0.413,0-0.619,0.233-0.619,0.699v0.509h0.872v0.666h-0.868v3.083h-0.849v-3.083h-0.641v-0.666h0.641v-0.608
				c0-0.395,0.129-0.707,0.388-0.935c0.259-0.228,0.582-0.343,0.97-0.343c0.21,0,0.376,0.023,0.498,0.069L-1641.153-193.279
				L-1641.153-193.279z"/>
			<path id="path3047" fill="#00ADEF" d="M-1638.703-188.461c-0.166,0.083-0.384,0.125-0.655,0.125
				c-0.727,0-1.091-0.349-1.091-1.047v-2.12h-0.626v-0.666h0.626v-0.868l0.85-0.242v1.11h0.897v0.666h-0.897v1.875
				c0,0.222,0.04,0.381,0.121,0.476c0.08,0.095,0.215,0.143,0.402,0.143c0.144,0,0.269-0.041,0.373-0.125V-188.461
				L-1638.703-188.461z"/>
			<path id="path3049" fill="#00ADEF" d="M-1631.498-188.421h-0.955l-0.472-1.337h-2.065l-0.454,1.337h-0.952l1.966-5.25h0.981
				L-1631.498-188.421z M-1633.156-190.468l-0.729-2.094c-0.022-0.068-0.045-0.178-0.069-0.33h-0.014
				c-0.022,0.139-0.046,0.249-0.073,0.33l-0.721,2.094H-1633.156z"/>
			<path id="path3051" fill="#00ADEF" d="M-1628.099-191.815l-2.025,2.731h2.017v0.663h-3.207v-0.319l2.068-2.768h-1.871v-0.663
				h3.017v0.356H-1628.099z"/>
			<path id="path3053" fill="#00ADEF" d="M-1624.112-188.421h-0.849v-0.593h-0.015c-0.246,0.454-0.63,0.681-1.149,0.681
				c-0.886,0-1.329-0.532-1.329-1.597v-2.24h0.849v2.153c0,0.674,0.26,1.011,0.78,1.011c0.251,0,0.458-0.093,0.621-0.278
				c0.163-0.185,0.244-0.428,0.244-0.729v-2.157h0.849L-1624.112-188.421z"/>
			<path id="path3055" fill="#00ADEF" d="M-1620.828-191.361c-0.103-0.081-0.25-0.121-0.443-0.121c-0.251,0-0.461,0.113-0.63,0.341
				c-0.168,0.227-0.253,0.536-0.253,0.926v1.794h-0.849v-3.749h0.849v0.772h0.015c0.083-0.263,0.21-0.469,0.383-0.617
				c0.172-0.148,0.364-0.222,0.576-0.222c0.154,0,0.271,0.024,0.351,0.07L-1620.828-191.361z"/>
			<path id="path3057" fill="#00ADEF" d="M-1617.046-190.065h-2.556c0.01,0.346,0.116,0.614,0.321,0.802
				c0.203,0.188,0.483,0.282,0.84,0.282c0.401,0,0.768-0.12,1.102-0.359v0.685c-0.342,0.215-0.793,0.322-1.355,0.322
				c-0.552,0-0.984-0.17-1.298-0.511c-0.314-0.34-0.47-0.819-0.47-1.437c0-0.584,0.173-1.059,0.518-1.426
				c0.345-0.367,0.774-0.551,1.287-0.551s0.909,0.165,1.19,0.494c0.28,0.329,0.421,0.787,0.421,1.373V-190.065z M-1617.866-190.666
				c-0.004-0.305-0.074-0.542-0.216-0.712c-0.142-0.169-0.337-0.254-0.586-0.254c-0.244,0-0.451,0.089-0.62,0.268
				c-0.169,0.178-0.274,0.411-0.313,0.699L-1617.866-190.666L-1617.866-190.666z"/>
		</g>
	</g>
</g>
<g>
	<path fill="#00ABEC" d="M52.476,125.605h-4.858V106.5c0-1.564,0.096-3.479,0.288-5.744h-0.083c-0.302,1.29-0.57,2.217-0.803,2.779
		l-8.812,22.07h-3.376L26,103.7c-0.247-0.646-0.508-1.627-0.783-2.944h-0.082c0.109,1.181,0.165,3.109,0.165,5.785v19.064h-4.529
		V96.083h6.897l7.762,19.662c0.59,1.51,0.974,2.635,1.153,3.375h0.103c0.507-1.551,0.919-2.703,1.235-3.459l7.906-19.578h6.65
		L52.476,125.605L52.476,125.605z"/>
	<path fill="#00ABEC" d="M77.058,116.36H62.687c0.055,1.949,0.655,3.452,1.802,4.509c1.146,1.059,2.721,1.586,4.725,1.586
		c2.251,0,4.316-0.672,6.197-2.019v3.851c-1.922,1.209-4.461,1.813-7.618,1.813c-3.102,0-5.535-0.957-7.298-2.872
		c-1.763-1.915-2.646-4.608-2.646-8.081c0-3.279,0.971-5.953,2.913-8.019c1.942-2.065,4.354-3.099,7.237-3.099
		s5.112,0.927,6.691,2.779c1.578,1.854,2.368,4.427,2.368,7.721V116.36z M72.446,112.984c-0.014-1.716-0.419-3.051-1.215-4.005
		c-0.796-0.953-1.894-1.431-3.294-1.431c-1.373,0-2.536,0.501-3.49,1.503c-0.954,1.002-1.541,2.314-1.76,3.933H72.446z"/>
	<path fill="#00ABEC" d="M100.774,125.605h-4.776v-3.582h-0.082c-1.538,2.719-3.905,4.076-7.103,4.076
		c-2.594,0-4.67-0.943-6.228-2.831s-2.337-4.457-2.337-7.71c0-3.486,0.861-6.279,2.583-8.379c1.723-2.101,4.018-3.15,6.887-3.15
		c2.841,0,4.907,1.14,6.197,3.418h0.082V94.395h4.776L100.774,125.605L100.774,125.605z M96.06,115.971v-2.76
		c0-1.496-0.487-2.766-1.462-3.809s-2.217-1.565-3.727-1.565c-1.784,0-3.188,0.666-4.21,1.997c-1.022,1.332-1.534,3.177-1.534,5.539
		c0,2.142,0.49,3.832,1.472,5.074s2.303,1.863,3.963,1.863c1.633,0,2.958-0.602,3.974-1.803
		C95.552,119.31,96.06,117.795,96.06,115.971z"/>
	<path fill="#00ABEC" d="M109.421,100.098c-0.782,0-1.452-0.254-2.007-0.762c-0.556-0.508-0.834-1.153-0.834-1.936
		c0-0.783,0.278-1.435,0.834-1.956s1.225-0.782,2.007-0.782c0.81,0,1.496,0.261,2.059,0.782s0.844,1.174,0.844,1.956
		c0,0.741-0.281,1.376-0.844,1.904C110.917,99.832,110.231,100.098,109.421,100.098z M111.789,125.605h-4.776v-21.082h4.776V125.605
		z"/>
	<path fill="#00ABEC" d="M134.209,125.605h-4.632v-3.294h-0.083c-1.455,2.524-3.589,3.788-6.403,3.788
		c-2.073,0-3.695-0.563-4.869-1.688c-1.173-1.125-1.76-2.615-1.76-4.469c0-3.979,2.292-6.3,6.876-6.958l6.259-0.886
		c0-3.006-1.428-4.509-4.282-4.509c-2.512,0-4.776,0.865-6.794,2.595v-4.18c2.223-1.317,4.79-1.977,7.7-1.977
		c5.325,0,7.988,2.622,7.988,7.864V125.605z M129.598,115.25l-4.426,0.617c-1.373,0.178-2.406,0.512-3.099,0.998
		c-0.693,0.487-1.04,1.342-1.04,2.563c0,0.894,0.319,1.625,0.957,2.193c0.638,0.569,1.493,0.854,2.563,0.854
		c1.455,0,2.659-0.513,3.613-1.534c0.954-1.021,1.431-2.311,1.431-3.859L129.598,115.25L129.598,115.25z"/>
	<path fill="#00ABEC" d="M150.803,124.432v-5.045c0.453,0.412,0.992,0.783,1.616,1.113c0.625,0.328,1.287,0.606,1.987,0.834
		c0.7,0.226,1.4,0.4,2.1,0.523c0.7,0.124,1.345,0.186,1.935,0.186c2.059,0,3.593-0.342,4.602-1.028s1.513-1.683,1.513-2.985
		c0-0.699-0.168-1.309-0.504-1.822c-0.337-0.515-0.807-0.983-1.411-1.41c-0.604-0.424-1.314-0.834-2.131-1.225
		c-0.816-0.392-1.691-0.8-2.625-1.227c-1.002-0.534-1.936-1.076-2.8-1.625c-0.864-0.549-1.616-1.156-2.254-1.822
		c-0.638-0.665-1.139-1.417-1.503-2.254c-0.364-0.838-0.545-1.819-0.545-2.944c0-1.387,0.312-2.591,0.937-3.613
		s1.448-1.866,2.471-2.532s2.186-1.16,3.49-1.482c1.304-0.322,2.635-0.483,3.994-0.483c3.088,0,5.339,0.35,6.752,1.05v4.838
		c-1.674-1.208-3.829-1.812-6.464-1.812c-0.728,0-1.452,0.068-2.172,0.206c-0.721,0.137-1.366,0.363-1.936,0.679
		c-0.569,0.316-1.033,0.721-1.39,1.215c-0.357,0.494-0.535,1.092-0.535,1.791c0,0.659,0.137,1.229,0.412,1.709
		c0.275,0.48,0.676,0.92,1.205,1.317c0.528,0.398,1.173,0.786,1.935,1.163c0.762,0.378,1.644,0.786,2.646,1.226
		c1.029,0.535,2,1.098,2.913,1.688c0.913,0.589,1.716,1.242,2.409,1.955c0.693,0.715,1.242,1.508,1.647,2.379
		c0.404,0.871,0.607,1.862,0.607,2.975c0,1.496-0.302,2.76-0.906,3.789s-1.417,1.865-2.439,2.512
		c-1.022,0.645-2.2,1.111-3.531,1.398c-1.332,0.289-2.738,0.434-4.221,0.434c-0.494,0-1.102-0.038-1.822-0.113
		c-0.721-0.074-1.458-0.186-2.213-0.328c-0.755-0.146-1.469-0.32-2.141-0.525C151.759,124.928,151.214,124.691,150.803,124.432z"/>
	<path fill="#00ABEC" d="M192.432,116.36h-14.371c0.055,1.949,0.655,3.452,1.802,4.509c1.146,1.059,2.721,1.586,4.725,1.586
		c2.251,0,4.316-0.672,6.197-2.019v3.851c-1.922,1.209-4.461,1.813-7.618,1.813c-3.102,0-5.535-0.957-7.298-2.872
		c-1.763-1.915-2.646-4.608-2.646-8.081c0-3.279,0.971-5.953,2.913-8.019c1.942-2.065,4.354-3.099,7.237-3.099
		s5.112,0.927,6.691,2.779c1.578,1.854,2.368,4.427,2.368,7.721V116.36z M187.82,112.984c-0.014-1.716-0.419-3.051-1.215-4.005
		c-0.796-0.953-1.894-1.431-3.294-1.431c-1.373,0-2.536,0.501-3.49,1.503c-0.954,1.002-1.541,2.314-1.76,3.933H187.82z"/>
	<path fill="#00ABEC" d="M209.21,109.072c-0.577-0.453-1.407-0.679-2.491-0.679c-1.414,0-2.594,0.638-3.541,1.914
		c-0.947,1.276-1.42,3.013-1.42,5.209v10.088h-4.776v-21.082h4.776v4.344h0.082c0.467-1.481,1.184-2.638,2.151-3.469
		c0.968-0.83,2.049-1.245,3.243-1.245c0.865,0,1.523,0.13,1.977,0.391L209.21,109.072L209.21,109.072z"/>
	<path fill="#00ABEC" d="M232.433,104.522l-8.153,21.082h-5.167l-7.762-21.082h5.188l4.673,14.741
		c0.357,1.084,0.576,2.031,0.659,2.841h0.062c0.124-1.017,0.315-1.937,0.576-2.759l4.9-14.823H232.433z"/>
	<path fill="#00ABEC" d="M238.074,100.098c-0.782,0-1.452-0.254-2.007-0.762c-0.556-0.508-0.834-1.153-0.834-1.936
		c0-0.783,0.278-1.435,0.834-1.956s1.225-0.782,2.007-0.782c0.81,0,1.496,0.261,2.059,0.782s0.844,1.174,0.844,1.956
		c0,0.741-0.281,1.376-0.844,1.904C239.57,99.832,238.884,100.098,238.074,100.098z M240.442,125.605h-4.776v-21.082h4.776V125.605z
		"/>
	<path fill="#00ABEC" d="M261.771,124.637c-1.688,0.976-3.686,1.463-5.991,1.463c-3.129,0-5.655-0.979-7.576-2.934
		c-1.922-1.957-2.882-4.492-2.882-7.607c0-3.473,1.033-6.262,3.099-8.369c2.065-2.106,4.828-3.16,8.286-3.16
		c1.922,0,3.617,0.337,5.085,1.009v4.447c-1.469-1.098-3.034-1.647-4.694-1.647c-2.018,0-3.672,0.684-4.962,2.049
		c-1.29,1.367-1.935,3.154-1.935,5.363c0,2.183,0.607,3.904,1.822,5.168s2.844,1.895,4.89,1.895c1.716,0,3.335-0.609,4.859-1.832
		L261.771,124.637L261.771,124.637z"/>
	<path fill="#00ABEC" d="M284.356,116.36h-14.371c0.055,1.949,0.655,3.452,1.802,4.509c1.146,1.059,2.721,1.586,4.725,1.586
		c2.251,0,4.316-0.672,6.197-2.019v3.851c-1.922,1.209-4.461,1.813-7.618,1.813c-3.102,0-5.535-0.957-7.298-2.872
		s-2.646-4.608-2.646-8.081c0-3.279,0.971-5.953,2.913-8.019c1.942-2.065,4.354-3.099,7.237-3.099s5.112,0.927,6.691,2.779
		c1.578,1.854,2.368,4.427,2.368,7.721V116.36z M279.744,112.984c-0.014-1.716-0.419-3.051-1.215-4.005
		c-0.796-0.953-1.894-1.431-3.294-1.431c-1.373,0-2.536,0.501-3.49,1.503s-1.541,2.314-1.76,3.933H279.744z"/>
	<path fill="#00ABEC" d="M287.588,124.945v-4.426c1.784,1.357,3.754,2.038,5.909,2.038c2.882,0,4.324-0.851,4.324-2.554
		c0-0.479-0.124-0.889-0.371-1.226c-0.247-0.336-0.58-0.635-0.999-0.896c-0.419-0.262-0.913-0.494-1.482-0.699
		c-0.57-0.206-1.205-0.439-1.904-0.7c-0.865-0.343-1.644-0.707-2.337-1.092c-0.693-0.384-1.27-0.819-1.729-1.308
		s-0.806-1.039-1.04-1.656c-0.233-0.618-0.35-1.34-0.35-2.162c0-1.016,0.24-1.911,0.721-2.687c0.481-0.776,1.125-1.428,1.936-1.956
		c0.81-0.528,1.729-0.927,2.758-1.194c1.03-0.268,2.093-0.401,3.191-0.401c1.949,0,3.692,0.296,5.229,0.886v4.179
		c-1.482-1.016-3.184-1.523-5.105-1.523c-0.604,0-1.15,0.063-1.637,0.186c-0.487,0.124-0.903,0.295-1.246,0.515
		s-0.611,0.483-0.803,0.793c-0.192,0.309-0.289,0.648-0.289,1.019c0,0.453,0.096,0.837,0.289,1.153
		c0.192,0.315,0.477,0.595,0.854,0.834c0.377,0.24,0.831,0.46,1.359,0.658c0.528,0.198,1.136,0.416,1.822,0.647
		c0.906,0.371,1.719,0.75,2.439,1.133c0.721,0.386,1.334,0.82,1.843,1.309c0.507,0.486,0.898,1.051,1.173,1.688
		c0.274,0.64,0.412,1.397,0.412,2.275c0,1.07-0.247,2.004-0.741,2.801c-0.494,0.795-1.153,1.455-1.976,1.977
		c-0.824,0.521-1.774,0.908-2.852,1.162c-1.078,0.255-2.213,0.382-3.407,0.382C291.273,126.1,289.276,125.715,287.588,124.945z"/>
</g>
<g>
	<path fill="#00ABEC" d="M854.065,63.617c0.574-2.592,1.008-5.33,1.008-7.922c0-10.658-5.191-20.021-13.268-25.781l-12.688,21.178
		c-0.576,0.863-0.146,1.301,0.863,1.301h16.15c1.01,0,1.154,0.572,0.576,1.291l-41.963,47.888c-0.576,0.721-0.865,0.61-0.434-0.255
		l13.27-32.304c0.287-0.863-0.146-1.62-1.154-1.62h-12.834c-1.01,0-1.439-0.665-1.152-1.528l15.43-41.165
		c-10.383,2.018-18.891,9.233-22.928,18.737c-4.037-4.753-10.096-7.77-16.871-7.77c-12.113,0-22.064,9.941-22.064,22.186
		c0,2.16,0.287,4.179,0.865,6.05c-9.363,3.525-16.297,12.125-17.082,22.49H574.378v-7.216l-32.007,8.578
		c-0.075-6.165-5.091-11.142-11.272-11.142c-5.719,0-10.433,4.262-11.168,9.779H422.22c-0.443-6.98-3.354-13.837-8.746-19.184
		c-11.753-11.66-30.72-11.66-42.471,0c-11.75,11.652-11.75,30.473,0,42.133c11.75,11.652,30.717,11.652,42.471,0
		c5.587-5.544,8.513-12.708,8.786-19.949h97.671c0.735,5.518,5.449,9.779,11.168,9.779c6.183,0,11.197-4.977,11.272-11.142
		l32.007,8.578v-7.216h165.361c0.545,13.919,12.002,25,26.072,25h80.32c14.42,0,26.1-11.635,26.1-26.037
		C872.233,76.689,864.588,66.927,854.065,63.617z M384.378,107.701V70.067l28.658,18.82L384.378,107.701z"/>
	<path fill="#00ABEC" d="M349.496,74.774c6.39-17.18,21.576-32.113,42.605-32.113c21.235,0,36.355,14.934,42.538,32.113
		c2.89,7.359,6.739,6.953,15.739,6.953V54.321l-58.103-32.32l-57.896,33.34v26.387C343.378,81.521,346.814,82.134,349.496,74.774z"
		/>
	<path fill="#00ABEC" d="M434.706,102.646c-6.183,17.387-21.438,30.244-42.674,30.244c-21.029,0-36.284-12.844-42.674-30.229
		c-1.649-4.293-4.125-5.269-9.485-5.269h-5.318h-0.176v22.789l58.517,32.113l57.483-33.34V97.393h-6.188
		C438.624,97.393,436.152,98.966,434.706,102.646z"/>
</g>
<g>
	<path fill="#00ABEC" d="M749.217,172.499c-1.072,0.555-2.404,0.833-3.996,0.833c-2.063,0-3.715-0.651-4.957-1.953
		c-1.242-1.303-1.863-3.012-1.863-5.126c0-2.272,0.699-4.11,2.096-5.513c1.398-1.4,3.164-2.102,5.301-2.102
		c1.375,0,2.514,0.194,3.42,0.585v2.341c-0.959-0.568-2.018-0.854-3.172-0.854c-1.541,0-2.787,0.493-3.742,1.478
		c-0.955,0.985-1.434,2.301-1.434,3.945c0,1.566,0.445,2.814,1.338,3.743s2.064,1.394,3.52,1.394c1.342,0,2.506-0.318,3.49-0.951
		V172.499L749.217,172.499z"/>
	<path fill="#00ABEC" d="M751.912,173.093v-14.217h4.104c5.24,0,7.861,2.312,7.861,6.93c0,2.194-0.729,3.958-2.182,5.289
		c-1.453,1.332-3.404,1.998-5.85,1.998H751.912z M754.262,160.88v10.222h1.885c1.658,0,2.949-0.455,3.871-1.367
		s1.383-2.201,1.383-3.867c0-3.324-1.723-4.986-5.166-4.986L754.262,160.88L754.262,160.88z"/>
	<path fill="#00ABEC" d="M778.53,173.093h-2.576l-6.791-10.448c-0.172-0.266-0.314-0.539-0.428-0.824h-0.059
		c0.053,0.306,0.078,0.957,0.078,1.953v9.319h-2.279v-14.217h2.746l6.563,10.202c0.279,0.423,0.457,0.713,0.537,0.871h0.039
		c-0.066-0.377-0.1-1.014-0.1-1.912v-9.161h2.27V173.093L778.53,173.093z"/>
	<path fill="#00ABEC" d="M795.612,173.093h-7.979v-14.217h7.662v2.003h-5.305v4.025h4.889v1.992h-4.889v4.203h5.621V173.093
		L795.612,173.093z"/>
	<path fill="#00ABEC" d="M807.112,173.093h-2.299v-1.726h-0.041c-0.74,1.31-1.879,1.963-3.42,1.963
		c-1.248,0-2.248-0.454-2.998-1.362c-0.75-0.909-1.125-2.146-1.125-3.713c0-1.679,0.414-3.022,1.244-4.035
		c0.828-1.011,1.934-1.517,3.314-1.517c1.369,0,2.363,0.549,2.984,1.646h0.039v-6.284h2.301V173.093L807.112,173.093z
		 M804.842,168.453v-1.327c0-0.722-0.234-1.332-0.703-1.834c-0.469-0.503-1.066-0.755-1.795-0.755c-0.859,0-1.535,0.32-2.027,0.963
		c-0.492,0.641-0.738,1.529-0.738,2.667c0,1.03,0.236,1.846,0.709,2.442c0.475,0.6,1.109,0.897,1.908,0.897
		c0.787,0,1.424-0.289,1.914-0.868C804.598,170.061,804.842,169.333,804.842,168.453z"/>
	<path fill="#00ABEC" d="M819.356,172.281c0,3.728-1.873,5.59-5.621,5.59c-1.32,0-2.475-0.221-3.459-0.663v-2.103
		c1.109,0.635,2.164,0.951,3.162,0.951c2.412,0,3.619-1.188,3.619-3.559v-1.11h-0.039c-0.762,1.295-1.904,1.942-3.432,1.942
		c-1.236,0-2.232-0.45-2.988-1.354c-0.758-0.902-1.135-2.113-1.135-3.634c0-1.726,0.404-3.097,1.219-4.114
		c0.813-1.018,1.93-1.525,3.352-1.525c1.342,0,2.336,0.549,2.984,1.646h0.039v-1.407h2.299V172.281L819.356,172.281z
		 M817.075,168.443v-1.317c0-0.714-0.234-1.324-0.707-1.829c-0.473-0.506-1.063-0.76-1.771-0.76c-0.871,0-1.555,0.322-2.047,0.968
		s-0.738,1.545-0.738,2.7c0,0.998,0.236,1.797,0.709,2.396c0.473,0.598,1.1,0.896,1.879,0.896c0.793,0,1.438-0.286,1.934-0.858
		C816.828,170.068,817.075,169.336,817.075,168.443z"/>
	<path fill="#00ABEC" d="M830.944,168.643h-6.918c0.025,0.938,0.314,1.661,0.867,2.17c0.551,0.51,1.309,0.764,2.275,0.764
		c1.084,0,2.076-0.323,2.982-0.971v1.854c-0.926,0.582-2.146,0.873-3.668,0.873c-1.494,0-2.666-0.461-3.516-1.385
		c-0.85-0.922-1.273-2.219-1.273-3.891c0-1.58,0.469-2.867,1.402-3.861c0.936-0.994,2.098-1.492,3.484-1.492
		c1.389,0,2.463,0.447,3.223,1.339c0.76,0.894,1.141,2.132,1.141,3.718V168.643L830.944,168.643z M828.725,167.016
		c-0.006-0.826-0.201-1.469-0.584-1.929c-0.385-0.459-0.912-0.688-1.588-0.688c-0.66,0-1.221,0.241-1.68,0.725
		c-0.461,0.482-0.742,1.113-0.848,1.895h4.699V167.016z"/>
	<path fill="#00ABEC" d="M851.03,173.093h-2.576l-6.791-10.448c-0.172-0.266-0.314-0.539-0.428-0.824h-0.059
		c0.053,0.306,0.08,0.957,0.08,1.953v9.319h-2.281v-14.217h2.746l6.563,10.202c0.279,0.423,0.457,0.713,0.537,0.871h0.039
		c-0.066-0.377-0.1-1.014-0.1-1.912v-9.161h2.27V173.093L851.03,173.093z"/>
	<path fill="#00ABEC" d="M858.793,173.332c-1.566,0-2.816-0.475-3.754-1.424c-0.934-0.947-1.4-2.205-1.4-3.771
		c0-1.705,0.486-3.037,1.461-3.994c0.975-0.959,2.289-1.439,3.941-1.439c1.586,0,2.82,0.467,3.707,1.398s1.328,2.225,1.328,3.877
		c0,1.618-0.477,2.916-1.432,3.891S860.405,173.332,858.793,173.332z M858.901,164.537c-0.896,0-1.607,0.314-2.131,0.941
		c-0.521,0.629-0.783,1.494-0.783,2.598c0,1.064,0.266,1.902,0.793,2.515c0.529,0.61,1.236,0.917,2.121,0.917
		c0.906,0,1.604-0.301,2.088-0.902c0.486-0.602,0.729-1.457,0.729-2.566c0-1.117-0.242-1.979-0.729-2.588
		C860.504,164.841,859.809,164.537,858.901,164.537z"/>
	<path fill="#00ABEC" d="M875.647,173.093h-2.301v-1.726h-0.039c-0.74,1.31-1.881,1.963-3.42,1.963c-1.25,0-2.25-0.454-3-1.362
		c-0.75-0.909-1.125-2.146-1.125-3.713c0-1.679,0.416-3.022,1.244-4.035c0.83-1.011,1.936-1.517,3.316-1.517
		c1.367,0,2.361,0.549,2.982,1.646h0.041v-6.284h2.299v15.028H875.647z M873.375,168.453v-1.327c0-0.722-0.234-1.332-0.703-1.834
		c-0.471-0.503-1.066-0.755-1.795-0.755c-0.859,0-1.535,0.32-2.027,0.963c-0.492,0.641-0.738,1.529-0.738,2.667
		c0,1.03,0.236,1.846,0.709,2.442c0.475,0.6,1.109,0.897,1.908,0.897c0.787,0,1.424-0.289,1.914-0.868
		C873.131,170.061,873.375,169.333,873.375,168.453z"/>
	<path fill="#00ABEC" d="M887.244,168.643h-6.918c0.025,0.938,0.314,1.661,0.867,2.17c0.551,0.51,1.311,0.764,2.275,0.764
		c1.084,0,2.078-0.323,2.982-0.971v1.854c-0.926,0.582-2.146,0.873-3.668,0.873c-1.494,0-2.666-0.461-3.516-1.385
		c-0.848-0.922-1.273-2.219-1.273-3.891c0-1.58,0.469-2.867,1.402-3.861c0.936-0.994,2.098-1.492,3.486-1.492
		c1.387,0,2.461,0.447,3.221,1.339c0.76,0.894,1.141,2.132,1.141,3.718V168.643L887.244,168.643z M885.024,167.016
		c-0.006-0.826-0.201-1.469-0.584-1.929c-0.383-0.459-0.912-0.688-1.586-0.688c-0.662,0-1.221,0.241-1.68,0.725
		c-0.461,0.482-0.742,1.113-0.85,1.895h4.699V167.016z"/>
	<path fill="#00ABEC" d="M888.803,172.775v-2.131c0.857,0.654,1.807,0.981,2.846,0.981c1.387,0,2.082-0.41,2.082-1.229
		c0-0.23-0.061-0.428-0.18-0.59s-0.279-0.306-0.48-0.432c-0.201-0.125-0.439-0.238-0.713-0.338s-0.58-0.211-0.918-0.336
		c-0.416-0.166-0.791-0.342-1.125-0.525c-0.334-0.186-0.611-0.396-0.832-0.63c-0.223-0.233-0.389-0.501-0.502-0.798
		c-0.111-0.299-0.168-0.645-0.168-1.041c0-0.489,0.115-0.92,0.348-1.295c0.23-0.373,0.541-0.688,0.932-0.94
		c0.391-0.255,0.834-0.446,1.328-0.575c0.496-0.129,1.008-0.193,1.537-0.193c0.938,0,1.777,0.144,2.518,0.428v2.012
		c-0.713-0.488-1.533-0.732-2.457-0.732c-0.291,0-0.555,0.029-0.789,0.088c-0.234,0.061-0.434,0.145-0.6,0.248
		c-0.166,0.107-0.295,0.234-0.387,0.383c-0.094,0.148-0.141,0.313-0.141,0.49c0,0.219,0.047,0.402,0.141,0.556
		c0.092,0.151,0.229,0.286,0.41,0.401c0.184,0.115,0.4,0.222,0.654,0.316c0.254,0.096,0.547,0.2,0.877,0.313
		c0.438,0.18,0.828,0.361,1.176,0.546c0.348,0.187,0.643,0.396,0.889,0.63c0.242,0.234,0.432,0.506,0.563,0.813
		c0.133,0.309,0.199,0.674,0.199,1.096c0,0.517-0.119,0.966-0.357,1.35c-0.236,0.383-0.555,0.7-0.951,0.951
		c-0.396,0.252-0.854,0.438-1.373,0.561s-1.064,0.185-1.641,0.185C890.576,173.332,889.616,173.146,888.803,172.775z"/>
</g>
<g>
	<path fill="#00ABEC" d="M481.583,30.4v-2.429c0.218,0.198,0.478,0.377,0.778,0.535c0.301,0.159,0.619,0.293,0.956,0.402
		c0.338,0.108,0.675,0.192,1.012,0.252c0.337,0.06,0.646,0.09,0.932,0.09c0.991,0,1.73-0.165,2.216-0.496
		c0.485-0.33,0.729-0.81,0.729-1.438c0-0.337-0.081-0.629-0.243-0.877c-0.161-0.248-0.388-0.475-0.679-0.68
		c-0.291-0.204-0.633-0.401-1.026-0.59c-0.393-0.188-0.813-0.385-1.264-0.59c-0.482-0.258-0.932-0.519-1.35-0.783
		c-0.416-0.264-0.777-0.557-1.084-0.877c-0.309-0.32-0.55-0.683-0.725-1.086c-0.176-0.402-0.263-0.875-0.263-1.417
		c0-0.668,0.149-1.248,0.451-1.74c0.3-0.492,0.696-0.898,1.188-1.22c0.492-0.32,1.052-0.559,1.682-0.714
		c0.627-0.155,1.269-0.232,1.923-0.232c1.486,0,2.57,0.168,3.252,0.506v2.329c-0.808-0.581-1.845-0.872-3.113-0.872
		c-0.351,0-0.699,0.033-1.046,0.099c-0.347,0.066-0.657,0.176-0.932,0.327c-0.274,0.152-0.498,0.348-0.67,0.585
		c-0.172,0.238-0.258,0.525-0.258,0.862c0,0.317,0.065,0.592,0.198,0.823c0.132,0.231,0.325,0.443,0.58,0.635
		c0.254,0.191,0.563,0.378,0.932,0.56c0.366,0.183,0.791,0.379,1.273,0.59c0.496,0.258,0.964,0.529,1.403,0.813
		c0.438,0.284,0.825,0.598,1.159,0.941c0.333,0.344,0.599,0.726,0.793,1.146s0.292,0.897,0.292,1.433
		c0,0.72-0.146,1.328-0.437,1.824c-0.29,0.495-0.683,0.898-1.175,1.209s-1.06,0.535-1.7,0.674c-0.642,0.14-1.318,0.209-2.032,0.209
		c-0.237,0-0.53-0.019-0.877-0.055s-0.702-0.09-1.064-0.159c-0.364-0.069-0.709-0.153-1.031-0.252
		C482.042,30.64,481.781,30.526,481.583,30.4z"/>
	<path fill="#00ABEC" d="M497.801,30.856c-0.449,0.225-1.041,0.337-1.773,0.337c-1.971,0-2.955-0.944-2.955-2.835v-5.74h-1.694
		v-1.804h1.694v-2.35l2.301-0.654v3.004h2.429v1.804h-2.429v5.076c0,0.602,0.108,1.031,0.327,1.289
		c0.218,0.258,0.581,0.387,1.09,0.387c0.391,0,0.728-0.112,1.012-0.338L497.801,30.856L497.801,30.856z"/>
	<path fill="#00ABEC" d="M505.673,23.005c-0.276-0.218-0.678-0.327-1.199-0.327c-0.681,0-1.249,0.308-1.704,0.922
		c-0.457,0.615-0.686,1.451-0.686,2.509v4.857h-2.3V20.814h2.3v2.092h0.04c0.225-0.714,0.569-1.271,1.036-1.671
		c0.466-0.399,0.986-0.6,1.561-0.6c0.417,0,0.734,0.063,0.952,0.188V23.005L505.673,23.005z"/>
	<path fill="#00ABEC" d="M515.715,26.516h-6.919c0.026,0.938,0.315,1.662,0.867,2.171c0.552,0.509,1.31,0.764,2.274,0.764
		c1.085,0,2.078-0.324,2.983-0.972v1.854c-0.925,0.582-2.146,0.873-3.668,0.873c-1.493,0-2.665-0.461-3.515-1.384
		c-0.85-0.922-1.273-2.219-1.273-3.891c0-1.58,0.468-2.867,1.402-3.861c0.936-0.995,2.097-1.492,3.484-1.492
		c1.389,0,2.463,0.446,3.223,1.338c0.76,0.893,1.14,2.132,1.14,3.718L515.715,26.516L515.715,26.516z M513.495,24.89
		c-0.006-0.826-0.201-1.469-0.584-1.929c-0.384-0.459-0.912-0.688-1.587-0.688c-0.661,0-1.221,0.241-1.68,0.724
		c-0.461,0.482-0.742,1.113-0.849,1.894L513.495,24.89L513.495,24.89z"/>
	<path fill="#00ABEC" d="M525.699,30.966h-2.23V29.38h-0.04c-0.7,1.216-1.728,1.824-3.083,1.824c-0.998,0-1.778-0.271-2.345-0.813
		c-0.563-0.542-0.848-1.259-0.848-2.151c0-1.916,1.104-3.033,3.312-3.351l3.014-0.427c0-1.447-0.688-2.171-2.062-2.171
		c-1.21,0-2.301,0.417-3.271,1.249v-2.012c1.069-0.635,2.306-0.952,3.706-0.952c2.564,0,3.848,1.263,3.848,3.787L525.699,30.966
		L525.699,30.966z M523.478,25.98l-2.132,0.297c-0.661,0.086-1.158,0.246-1.491,0.481c-0.334,0.234-0.501,0.646-0.501,1.233
		c0,0.43,0.152,0.782,0.461,1.057c0.308,0.275,0.719,0.411,1.233,0.411c0.7,0,1.28-0.246,1.74-0.738
		c0.459-0.492,0.688-1.112,0.688-1.859V25.98H523.478z"/>
	<path fill="#00ABEC" d="M543.681,30.966h-2.3v-5.532c0-1.063-0.149-1.834-0.451-2.31c-0.301-0.476-0.808-0.714-1.521-0.714
		c-0.603,0-1.112,0.301-1.532,0.902c-0.419,0.602-0.629,1.322-0.629,2.161v5.492h-2.311v-5.721c0-1.89-0.667-2.835-2.003-2.835
		c-0.62,0-1.132,0.284-1.531,0.853c-0.399,0.568-0.601,1.306-0.601,2.211v5.492h-2.3V20.814h2.3v1.605h0.04
		c0.733-1.229,1.802-1.844,3.202-1.844c0.7,0,1.313,0.193,1.839,0.58c0.526,0.387,0.885,0.894,1.075,1.521
		c0.754-1.401,1.877-2.102,3.371-2.102c2.233,0,3.351,1.378,3.351,4.134V30.966L543.681,30.966z"/>
	<path fill="#00ABEC" d="M547.648,18.684c-0.377,0-0.699-0.122-0.968-0.367c-0.268-0.244-0.4-0.555-0.4-0.932s0.134-0.69,0.4-0.941
		c0.268-0.251,0.591-0.377,0.968-0.377c0.39,0,0.72,0.126,0.99,0.377c0.271,0.251,0.406,0.564,0.406,0.941
		c0,0.357-0.136,0.663-0.406,0.917C548.368,18.557,548.038,18.684,547.648,18.684z M548.788,30.966h-2.3V20.814h2.3V30.966z"/>
	<path fill="#00ABEC" d="M560.833,30.966h-2.3v-5.721c0-1.896-0.671-2.845-2.014-2.845c-0.699,0-1.277,0.263-1.733,0.788
		s-0.686,1.188-0.686,1.987v5.79h-2.31V20.814h2.31V22.5h0.04c0.761-1.281,1.857-1.923,3.291-1.923c1.104,0,1.946,0.358,2.528,1.075
		c0.581,0.718,0.872,1.754,0.872,3.108L560.833,30.966L560.833,30.966z"/>
	<path fill="#00ABEC" d="M572.878,30.153c0,3.728-1.873,5.591-5.621,5.591c-1.321,0-2.475-0.222-3.46-0.664v-2.102
		c1.11,0.635,2.165,0.951,3.163,0.951c2.412,0,3.618-1.187,3.618-3.559v-1.11h-0.039c-0.761,1.295-1.904,1.943-3.431,1.943
		c-1.236,0-2.232-0.451-2.989-1.354c-0.757-0.903-1.135-2.113-1.135-3.634c0-1.725,0.405-3.096,1.22-4.114
		c0.813-1.018,1.93-1.526,3.351-1.526c1.342,0,2.336,0.549,2.984,1.646h0.039v-1.407h2.3V30.153L572.878,30.153z M570.597,26.316
		v-1.318c0-0.714-0.235-1.324-0.708-1.829c-0.473-0.506-1.063-0.759-1.771-0.759c-0.872,0-1.555,0.322-2.047,0.967
		s-0.738,1.545-0.738,2.701c0,0.998,0.236,1.796,0.709,2.395c0.473,0.598,1.099,0.897,1.878,0.897c0.794,0,1.438-0.286,1.935-0.858
		C570.35,27.94,570.597,27.208,570.597,26.316z"/>
	<path fill="#00ABEC" d="M495.448,55.331h-7.98V41.113h7.663v2.003h-5.304v4.025h4.888v1.992h-4.888v4.204h5.621V55.331z"/>
	<path fill="#00ABEC" d="M506.759,55.331h-2.3v-5.721c0-1.896-0.671-2.845-2.013-2.845c-0.7,0-1.278,0.263-1.734,0.788
		c-0.456,0.525-0.685,1.188-0.685,1.987v5.79h-2.311v-10.15h2.311v1.685h0.04c0.76-1.281,1.856-1.923,3.291-1.923
		c1.104,0,1.945,0.358,2.527,1.075c0.581,0.718,0.872,1.754,0.872,3.108L506.759,55.331L506.759,55.331z"/>
	<path fill="#00ABEC" d="M518.794,55.331h-2.3v-1.725h-0.04c-0.74,1.309-1.88,1.963-3.42,1.963c-1.249,0-2.249-0.455-2.999-1.363
		c-0.75-0.909-1.125-2.146-1.125-3.713c0-1.679,0.415-3.023,1.244-4.035c0.829-1.011,1.935-1.517,3.315-1.517
		c1.368,0,2.362,0.549,2.983,1.646h0.04v-6.285h2.3L518.794,55.331L518.794,55.331z M516.524,50.69v-1.328
		c0-0.721-0.234-1.332-0.703-1.834c-0.471-0.503-1.067-0.754-1.795-0.754c-0.859,0-1.535,0.32-2.027,0.962
		c-0.492,0.641-0.738,1.53-0.738,2.667c0,1.03,0.236,1.846,0.709,2.443c0.474,0.599,1.108,0.897,1.908,0.897
		c0.786,0,1.424-0.289,1.913-0.868C516.28,52.298,516.524,51.569,516.524,50.69z"/>
	<path fill="#00ABEC" d="M524.138,53.833h-0.04V60h-2.3v-14.82h2.3v1.784h0.04c0.786-1.349,1.938-2.022,3.45-2.022
		c1.288,0,2.293,0.453,3.014,1.358c0.721,0.905,1.08,2.121,1.08,3.648c0,1.691-0.405,3.047-1.219,4.064
		c-0.813,1.018-1.924,1.526-3.331,1.526C525.836,55.539,524.838,54.97,524.138,53.833z M524.079,49.829v1.259
		c0,0.74,0.236,1.368,0.709,1.884c0.472,0.516,1.072,0.773,1.799,0.773c0.854,0,1.521-0.332,2.008-0.997
		c0.485-0.664,0.729-1.591,0.729-2.78c0-0.998-0.228-1.779-0.68-2.345c-0.452-0.565-1.065-0.848-1.839-0.848
		c-0.819,0-1.479,0.291-1.979,0.872C524.328,48.229,524.079,48.956,524.079,49.829z"/>
	<path fill="#00ABEC" d="M538.534,55.568c-1.566,0-2.817-0.475-3.753-1.423c-0.936-0.948-1.402-2.206-1.402-3.772
		c0-1.705,0.487-3.037,1.462-3.995c0.976-0.958,2.289-1.438,3.941-1.438c1.586,0,2.82,0.466,3.707,1.397
		c0.886,0.933,1.329,2.225,1.329,3.877c0,1.619-0.479,2.916-1.434,3.891C541.43,55.082,540.146,55.568,538.534,55.568z
		 M538.641,46.774c-0.897,0-1.608,0.314-2.131,0.941c-0.521,0.629-0.782,1.494-0.782,2.598c0,1.064,0.264,1.902,0.793,2.514
		c0.527,0.611,1.234,0.917,2.12,0.917c0.906,0,1.603-0.301,2.087-0.902c0.486-0.602,0.729-1.457,0.729-2.567
		c0-1.117-0.243-1.979-0.729-2.588C540.244,47.079,539.548,46.774,538.641,46.774z"/>
	<path fill="#00ABEC" d="M547.317,43.047c-0.377,0-0.699-0.122-0.968-0.367c-0.268-0.244-0.4-0.555-0.4-0.932s0.134-0.69,0.4-0.941
		c0.268-0.251,0.591-0.377,0.968-0.377c0.39,0,0.72,0.126,0.99,0.377c0.271,0.251,0.406,0.564,0.406,0.941
		c0,0.357-0.136,0.663-0.406,0.917C548.037,42.92,547.707,43.047,547.317,43.047z M548.457,55.331h-2.3V45.179h2.3V55.331z"/>
	<path fill="#00ABEC" d="M560.501,55.331h-2.3v-5.721c0-1.896-0.671-2.845-2.014-2.845c-0.699,0-1.277,0.263-1.733,0.788
		c-0.456,0.525-0.686,1.188-0.686,1.987v5.79h-2.31v-10.15h2.31v1.685h0.04c0.761-1.281,1.857-1.923,3.291-1.923
		c1.104,0,1.946,0.358,2.528,1.075c0.581,0.718,0.872,1.754,0.872,3.108L560.501,55.331L560.501,55.331z"/>
	<path fill="#00ABEC" d="M568.662,55.221c-0.449,0.225-1.041,0.337-1.774,0.337c-1.97,0-2.955-0.944-2.955-2.835v-5.74h-1.693
		v-1.804h1.693v-2.35l2.302-0.654v3.004h2.429v1.804h-2.429v5.076c0,0.602,0.107,1.031,0.326,1.289
		c0.219,0.258,0.581,0.387,1.091,0.387c0.391,0,0.728-0.112,1.012-0.338L568.662,55.221L568.662,55.221z"/>
</g>
<g>
	<path fill="#00ABEC" d="M371.078,181.205c-2.05,0-3.69-0.666-4.923-1.994c-1.233-1.328-1.849-3.057-1.849-5.185
		c0-2.286,0.628-4.11,1.884-5.474c1.256-1.361,2.961-2.041,5.115-2.041c1.996,0,3.604,0.66,4.823,1.982
		c1.22,1.321,1.829,3.051,1.829,5.184c0,2.32-0.625,4.154-1.874,5.504C374.835,180.529,373.166,181.205,371.078,181.205z
		 M371.187,168.584c-1.302,0-2.361,0.485-3.177,1.457c-0.816,0.973-1.225,2.25-1.225,3.838c0,1.578,0.396,2.852,1.189,3.815
		s1.831,1.447,3.113,1.447c1.361,0,2.436-0.459,3.222-1.378c0.786-0.92,1.18-2.204,1.18-3.855c0-1.699-0.382-3.012-1.146-3.938
		C373.581,169.047,372.528,168.584,371.187,168.584z"/>
	<path fill="#00ABEC" d="M386.196,173.006c-0.277-0.219-0.678-0.328-1.199-0.328c-0.681,0-1.249,0.309-1.705,0.923
		s-0.685,1.45-0.685,2.509v4.857h-2.3v-10.151h2.3v2.093h0.04c0.225-0.715,0.569-1.271,1.036-1.672c0.466-0.398,0.986-0.6,1.561-0.6
		c0.417,0,0.734,0.063,0.952,0.188V173.006z"/>
	<path fill="#00ABEC" d="M388.982,168.684c-0.377,0-0.699-0.122-0.967-0.367c-0.268-0.244-0.401-0.555-0.401-0.932
		s0.134-0.69,0.401-0.941s0.59-0.377,0.967-0.377c0.39,0,0.72,0.126,0.991,0.377s0.406,0.564,0.406,0.941
		c0,0.357-0.136,0.662-0.406,0.916C389.702,168.557,389.372,168.684,388.982,168.684z M390.122,180.967h-2.3v-10.151h2.3V180.967z"
		/>
	<path fill="#00ABEC" d="M402.365,180.153c0,3.728-1.873,5.591-5.621,5.591c-1.321,0-2.475-0.222-3.46-0.664v-2.102
		c1.11,0.635,2.165,0.951,3.163,0.951c2.412,0,3.618-1.188,3.618-3.559v-1.111h-0.039c-0.762,1.295-1.904,1.943-3.432,1.943
		c-1.236,0-2.231-0.451-2.989-1.354c-0.757-0.903-1.135-2.113-1.135-3.635c0-1.725,0.406-3.096,1.22-4.113
		c0.813-1.018,1.93-1.525,3.351-1.525c1.342,0,2.336,0.549,2.984,1.645h0.039v-1.406h2.3V180.153z M400.085,176.316v-1.318
		c0-0.713-0.236-1.324-0.708-1.828c-0.473-0.506-1.063-0.76-1.771-0.76c-0.871,0-1.555,0.322-2.046,0.967
		c-0.492,0.646-0.738,1.545-0.738,2.701c0,0.998,0.236,1.797,0.709,2.396c0.473,0.598,1.099,0.897,1.878,0.897
		c0.794,0,1.438-0.287,1.934-0.859C399.838,177.94,400.085,177.209,400.085,176.316z"/>
	<path fill="#00ABEC" d="M406.519,168.684c-0.377,0-0.698-0.122-0.967-0.367c-0.268-0.244-0.4-0.555-0.4-0.932s0.134-0.69,0.4-0.941
		c0.268-0.251,0.59-0.377,0.967-0.377c0.391,0,0.721,0.126,0.991,0.377c0.271,0.251,0.406,0.564,0.406,0.941
		c0,0.357-0.136,0.662-0.406,0.916C407.239,168.557,406.909,168.684,406.519,168.684z M407.659,180.967h-2.3v-10.151h2.3V180.967z"
		/>
	<path fill="#00ABEC" d="M419.704,180.967h-2.3v-5.721c0-1.896-0.671-2.846-2.014-2.846c-0.699,0-1.277,0.264-1.733,0.788
		s-0.686,1.188-0.686,1.987v5.789h-2.31v-10.15h2.31v1.686h0.04c0.761-1.281,1.857-1.924,3.291-1.924
		c1.104,0,1.946,0.358,2.528,1.075c0.581,0.718,0.872,1.754,0.872,3.108L419.704,180.967L419.704,180.967z"/>
	<path fill="#00ABEC" d="M364.033,204.766v-2.43c0.218,0.199,0.478,0.377,0.778,0.535c0.301,0.159,0.619,0.293,0.956,0.402
		c0.338,0.107,0.675,0.191,1.012,0.252c0.337,0.061,0.647,0.09,0.932,0.09c0.991,0,1.73-0.164,2.216-0.496
		c0.485-0.33,0.729-0.81,0.729-1.438c0-0.338-0.081-0.629-0.243-0.877c-0.161-0.248-0.388-0.475-0.679-0.68s-0.633-0.401-1.026-0.59
		c-0.393-0.189-0.814-0.386-1.264-0.591c-0.482-0.258-0.932-0.519-1.349-0.782c-0.416-0.265-0.778-0.558-1.085-0.877
		c-0.308-0.32-0.549-0.684-0.724-1.086c-0.176-0.402-0.263-0.875-0.263-1.418c0-0.668,0.15-1.248,0.451-1.74
		c0.3-0.492,0.697-0.897,1.189-1.22c0.492-0.319,1.052-0.56,1.681-0.714c0.627-0.154,1.27-0.232,1.923-0.232
		c1.487,0,2.571,0.168,3.252,0.506v2.33c-0.807-0.582-1.844-0.873-3.113-0.873c-0.351,0-0.699,0.033-1.046,0.1
		c-0.347,0.066-0.657,0.176-0.932,0.327c-0.273,0.151-0.498,0.348-0.669,0.585c-0.172,0.238-0.258,0.525-0.258,0.861
		c0,0.317,0.065,0.592,0.198,0.824c0.132,0.23,0.325,0.442,0.58,0.635c0.254,0.19,0.564,0.377,0.932,0.56
		c0.366,0.183,0.791,0.379,1.273,0.59c0.496,0.259,0.964,0.529,1.403,0.813c0.439,0.283,0.826,0.598,1.16,0.94
		c0.333,0.345,0.598,0.726,0.793,1.146c0.194,0.42,0.292,0.898,0.292,1.434c0,0.721-0.146,1.328-0.437,1.824
		c-0.29,0.494-0.682,0.898-1.175,1.209c-0.492,0.311-1.059,0.535-1.7,0.674c-0.641,0.141-1.318,0.209-2.032,0.209
		c-0.237,0-0.53-0.02-0.877-0.055c-0.347-0.036-0.702-0.09-1.065-0.159c-0.364-0.069-0.708-0.153-1.031-0.252
		S364.231,204.892,364.033,204.766z"/>
	<path fill="#00ABEC" d="M384.078,200.879h-6.919c0.026,0.938,0.315,1.662,0.867,2.172c0.552,0.509,1.31,0.764,2.275,0.764
		c1.084,0,2.078-0.324,2.983-0.973v1.854c-0.925,0.582-2.147,0.873-3.668,0.873c-1.493,0-2.665-0.461-3.515-1.384
		c-0.849-0.922-1.273-2.219-1.273-3.891c0-1.58,0.468-2.867,1.402-3.861c0.936-0.995,2.097-1.492,3.485-1.492
		c1.388,0,2.462,0.445,3.222,1.338c0.76,0.893,1.14,2.133,1.14,3.719L384.078,200.879L384.078,200.879z M381.857,199.254
		c-0.006-0.826-0.201-1.469-0.584-1.93c-0.384-0.459-0.912-0.688-1.587-0.688c-0.661,0-1.221,0.24-1.68,0.724
		c-0.46,0.481-0.742,1.113-0.848,1.894H381.857L381.857,199.254z"/>
	<path fill="#00ABEC" d="M392.158,197.369c-0.277-0.218-0.678-0.326-1.199-0.326c-0.681,0-1.249,0.308-1.705,0.922
		c-0.456,0.615-0.685,1.451-0.685,2.509v4.856h-2.3v-10.15h2.3v2.092h0.04c0.225-0.714,0.569-1.271,1.036-1.671
		c0.466-0.399,0.986-0.601,1.561-0.601c0.417,0,0.734,0.063,0.952,0.188V197.369L392.158,197.369z"/>
	<path fill="#00ABEC" d="M403.342,195.18l-3.926,10.15h-2.488l-3.738-10.15h2.499l2.25,7.098c0.172,0.521,0.276,0.979,0.316,1.368
		h0.029c0.06-0.489,0.152-0.933,0.277-1.328l2.359-7.138H403.342z"/>
	<path fill="#00ABEC" d="M413.334,200.879h-6.919c0.026,0.938,0.315,1.662,0.867,2.172c0.552,0.509,1.31,0.764,2.274,0.764
		c1.084,0,2.078-0.324,2.983-0.973v1.854c-0.925,0.582-2.147,0.873-3.668,0.873c-1.493,0-2.665-0.461-3.515-1.384
		c-0.85-0.922-1.273-2.219-1.273-3.891c0-1.58,0.468-2.867,1.402-3.861c0.936-0.995,2.097-1.492,3.484-1.492
		c1.389,0,2.462,0.445,3.223,1.338c0.76,0.893,1.14,2.133,1.14,3.719L413.334,200.879L413.334,200.879z M411.113,199.254
		c-0.006-0.826-0.201-1.469-0.584-1.93c-0.385-0.459-0.912-0.688-1.587-0.688c-0.661,0-1.222,0.24-1.681,0.724
		c-0.46,0.481-0.742,1.113-0.848,1.894H411.113L411.113,199.254z"/>
	<path fill="#00ABEC" d="M421.414,197.369c-0.277-0.218-0.678-0.326-1.199-0.326c-0.681,0-1.249,0.308-1.705,0.922
		c-0.456,0.615-0.685,1.451-0.685,2.509v4.856h-2.3v-10.15h2.3v2.092h0.04c0.225-0.714,0.568-1.271,1.036-1.671
		c0.466-0.399,0.985-0.601,1.561-0.601c0.417,0,0.734,0.063,0.952,0.188V197.369L421.414,197.369z"/>
</g>
<g>
	<path fill="#F78B11" d="M743.888,141.49l-2.076,6.289h-2.67l6.793-19.993h3.115l6.822,19.993h-2.759l-2.136-6.289H743.888z
		 M750.444,139.474l-1.957-5.755c-0.445-1.305-0.742-2.491-1.039-3.648h-0.059c-0.297,1.187-0.623,2.402-1.009,3.619l-1.958,5.784
		H750.444z"/>
	<path fill="#F78B11" d="M761.214,140.008h0.06c0.355-0.505,0.86-1.127,1.275-1.632l4.212-4.954h3.145l-5.547,5.903l6.318,8.454
		h-3.175l-4.953-6.882l-1.335,1.483v5.398h-2.581v-21.061h2.581V140.008z"/>
	<path fill="#F78B11" d="M781.03,147.779l-0.208-1.81h-0.089c-0.801,1.127-2.344,2.136-4.39,2.136c-2.907,0-4.391-2.047-4.391-4.123
		c0-3.471,3.085-5.369,8.632-5.34v-0.296c0-1.187-0.326-3.322-3.263-3.322c-1.335,0-2.729,0.415-3.737,1.067l-0.594-1.721
		c1.187-0.771,2.907-1.275,4.717-1.275c4.39,0,5.458,2.996,5.458,5.874v5.368c0,1.246,0.06,2.463,0.237,3.441H781.03z
		 M780.644,140.452c-2.848-0.059-6.081,0.445-6.081,3.233c0,1.691,1.127,2.492,2.462,2.492c1.869,0,3.056-1.187,3.471-2.403
		c0.089-0.267,0.148-0.563,0.148-0.83V140.452z"/>
	<path fill="#F78B11" d="M787.378,137.309c0-1.483-0.029-2.699-0.118-3.887h2.284l0.118,2.314h0.089
		c0.802-1.365,2.136-2.641,4.509-2.641c1.958,0,3.441,1.187,4.064,2.878h0.059c0.445-0.801,1.009-1.424,1.603-1.869
		c0.86-0.652,1.81-1.009,3.174-1.009c1.898,0,4.716,1.246,4.716,6.229v8.454h-2.551v-8.128c0-2.759-1.008-4.42-3.114-4.42
		c-1.483,0-2.64,1.098-3.085,2.373c-0.119,0.356-0.208,0.831-0.208,1.306v8.869h-2.551v-8.603c0-2.284-1.009-3.945-2.996-3.945
		c-1.632,0-2.817,1.306-3.233,2.61c-0.148,0.386-0.207,0.831-0.207,1.275v8.662h-2.552V137.309z"/>
	<path fill="#F78B11" d="M820.071,147.779l-0.208-1.81h-0.089c-0.801,1.127-2.344,2.136-4.39,2.136
		c-2.907,0-4.391-2.047-4.391-4.123c0-3.471,3.085-5.369,8.632-5.34v-0.296c0-1.187-0.326-3.322-3.263-3.322
		c-1.335,0-2.729,0.415-3.737,1.067l-0.594-1.721c1.187-0.771,2.907-1.275,4.717-1.275c4.39,0,5.458,2.996,5.458,5.874v5.368
		c0,1.246,0.06,2.463,0.237,3.441H820.071z M819.685,140.452c-2.848-0.059-6.081,0.445-6.081,3.233c0,1.691,1.127,2.492,2.462,2.492
		c1.869,0,3.056-1.187,3.471-2.403c0.089-0.267,0.148-0.563,0.148-0.83V140.452z"/>
	<path fill="#F78B11" d="M829.326,129.389c0.029,0.89-0.623,1.602-1.661,1.602c-0.919,0-1.572-0.712-1.572-1.602
		c0-0.92,0.683-1.632,1.632-1.632C828.703,127.757,829.326,128.469,829.326,129.389z M826.419,147.779v-14.357h2.61v14.357H826.419z
		"/>
</g>
</svg>
