<?xml version="1.0" encoding="utf-8"?>
<!DOCTYPE svg PUBLIC "-//W3C//DTD SVG 1.1//EN" "http://www.w3.org/Graphics/SVG/1.1/DTD/svg11.dtd">
<svg version="1.1" id="Layer_1" xmlns="http://www.w3.org/2000/svg" xmlns:xlink="http://www.w3.org/1999/xlink" x="0px" y="0px"
	 width="1169.942px" height="220.489px" viewBox="0 0 1169.942 220.489" enable-background="new 0 0 1169.942 220.489"
	 xml:space="preserve">
<g id="Livello_x0020_1" transform="translate(9.0774947,-38070.588)">
	<g id="g3000" transform="matrix(0.04824549,0,0,0.04824549,0,38079.698)">
		<path id="path13" 
fill="#0DADEA" d="M269.714,710.45l334.778-46.03v323.068H269.744
			L269.714,710.45z M604.492,1028.842v319.394l-334.738-45.929l-0.01-273.466H604.492L604.492,1028.842L604.492,1028.842z
			 M641.534,659.339l445.46-61.241v389.39h-445.46V659.339z M1086.994,1028.842v385.646l-445.46-61.17v-324.475H1086.994z"/>
		<g id="flowRoot2989" transform="matrix(89.561227,0,0,88.070452,150957.32,17842.049)">
			<path id="path3031" 
fill="#00ADEF" d="M-1664.94-188.422h-0.864v-3.398
				c0-0.278,0.017-0.619,0.051-1.022h-0.015c-0.054,0.23-0.101,0.394-0.143,0.494l-1.567,3.925h-0.601l-1.571-3.895
				c-0.044-0.115-0.09-0.289-0.139-0.523h-0.015c0.02,0.21,0.029,0.553,0.029,1.029v3.39h-0.806v-5.25h1.227l1.38,3.496
				c0.105,0.268,0.173,0.469,0.205,0.6h0.018c0.09-0.276,0.163-0.481,0.22-0.615l1.406-3.482h1.183L-1664.94-188.422z"/>
			<path id="path3033" 
fill="#00ADEF" d="M-1663.318-192.958c-0.139,0-0.258-0.045-0.357-0.135
				c-0.099-0.09-0.148-0.205-0.148-0.344c0-0.139,0.049-0.255,0.148-0.348c0.099-0.092,0.218-0.139,0.357-0.139
				c0.144,0,0.266,0.047,0.366,0.139c0.1,0.093,0.15,0.208,0.15,0.348c0,0.131-0.05,0.245-0.15,0.339
				C-1663.052-193.005-1663.174-192.958-1663.318-192.958z M-1662.897-188.422h-0.849v-3.749h0.849V-188.422z"/>
			<path id="path3035" 
fill="#00ADEF" d="M-1659.1-188.594c-0.3,0.173-0.656,0.26-1.065,0.26
				c-0.557,0-1.006-0.174-1.347-0.522c-0.342-0.348-0.513-0.798-0.513-1.352c0-0.618,0.184-1.114,0.551-1.488
				c0.367-0.375,0.858-0.562,1.474-0.562c0.342,0,0.643,0.06,0.904,0.179v0.791c-0.261-0.195-0.539-0.293-0.835-0.293
				c-0.359,0-0.653,0.121-0.882,0.364c-0.229,0.243-0.344,0.561-0.344,0.954c0,0.388,0.108,0.694,0.324,0.919
				c0.216,0.225,0.506,0.337,0.87,0.337c0.305,0,0.593-0.109,0.864-0.326L-1659.1-188.594z"/>
			<path id="path3037" 
fill="#00ADEF" d="M-1656.08-191.362c-0.103-0.081-0.25-0.121-0.443-0.121
				c-0.251,0-0.462,0.113-0.63,0.341c-0.168,0.227-0.253,0.536-0.253,0.926v1.794h-0.849v-3.749h0.849v0.772h0.015
				c0.083-0.263,0.21-0.469,0.383-0.617c0.172-0.148,0.364-0.222,0.577-0.222c0.154,0,0.271,0.024,0.352,0.07L-1656.08-191.362z"/>
			<path id="path3039" 
fill="#00ADEF" d="M-1653.81-188.334c-0.578,0-1.04-0.175-1.386-0.525
				c-0.345-0.35-0.518-0.815-0.518-1.393c0-0.63,0.18-1.122,0.54-1.475c0.36-0.354,0.845-0.531,1.456-0.531
				c0.586,0,1.042,0.172,1.369,0.516c0.327,0.344,0.49,0.821,0.49,1.431c0,0.598-0.176,1.077-0.529,1.437
				C-1652.74-188.514-1653.214-188.334-1653.81-188.334L-1653.81-188.334z M-1653.769-191.582c-0.332,0-0.595,0.116-0.787,0.347
				c-0.193,0.232-0.289,0.552-0.289,0.959c0,0.393,0.098,0.702,0.293,0.928c0.195,0.226,0.457,0.339,0.784,0.339
				c0.335,0,0.591-0.111,0.771-0.333c0.179-0.222,0.27-0.538,0.27-0.949c0-0.412-0.09-0.731-0.27-0.955
				C-1653.178-191.47-1653.435-191.582-1653.769-191.582L-1653.769-191.582z"/>
			<path id="path3041" 
fill="#00ADEF" d="M-1651.225-188.539v-0.787
				c0.318,0.242,0.668,0.362,1.051,0.362c0.513,0,0.769-0.151,0.769-0.454c0-0.086-0.022-0.158-0.066-0.218
				c-0.044-0.06-0.103-0.113-0.177-0.159c-0.075-0.046-0.162-0.088-0.264-0.125c-0.102-0.036-0.214-0.078-0.339-0.124
				c-0.154-0.061-0.292-0.126-0.416-0.194c-0.123-0.068-0.226-0.146-0.307-0.232c-0.082-0.087-0.144-0.185-0.185-0.295
				c-0.042-0.11-0.062-0.238-0.062-0.384c0-0.181,0.043-0.34,0.128-0.478c0.085-0.138,0.2-0.254,0.344-0.347
				c0.144-0.094,0.307-0.165,0.491-0.213c0.183-0.048,0.372-0.071,0.567-0.071c0.346,0,0.656,0.052,0.93,0.157v0.743
				c-0.264-0.18-0.566-0.271-0.908-0.271c-0.107,0-0.204,0.011-0.291,0.033c-0.087,0.022-0.161,0.052-0.222,0.091
				s-0.109,0.086-0.143,0.141c-0.034,0.055-0.052,0.115-0.052,0.181c0,0.081,0.017,0.149,0.052,0.205
				c0.034,0.056,0.085,0.106,0.152,0.148c0.067,0.043,0.147,0.082,0.242,0.117c0.094,0.035,0.202,0.074,0.324,0.115
				c0.161,0.066,0.306,0.133,0.434,0.202c0.128,0.068,0.238,0.146,0.328,0.232c0.09,0.087,0.16,0.187,0.209,0.301
				c0.048,0.113,0.073,0.248,0.073,0.404c0,0.191-0.043,0.356-0.132,0.498c-0.088,0.142-0.205,0.259-0.351,0.351
				c-0.147,0.093-0.316,0.162-0.507,0.207c-0.192,0.046-0.394,0.068-0.606,0.068
				C-1650.57-188.334-1650.924-188.402-1651.225-188.539z"/>
			<path id="path3043" 
fill="#00ADEF" d="M-1646.092-188.334c-0.578,0-1.041-0.175-1.386-0.525
				c-0.345-0.35-0.518-0.815-0.518-1.393c0-0.63,0.18-1.122,0.54-1.475c0.36-0.354,0.845-0.531,1.455-0.531
				c0.586,0,1.042,0.172,1.37,0.516c0.327,0.344,0.491,0.821,0.491,1.431c0,0.598-0.176,1.077-0.529,1.437
				C-1645.022-188.514-1645.496-188.334-1646.092-188.334L-1646.092-188.334z M-1646.052-191.582c-0.332,0-0.594,0.116-0.787,0.347
				c-0.193,0.232-0.289,0.552-0.289,0.959c0,0.393,0.098,0.702,0.293,0.928c0.195,0.226,0.456,0.339,0.784,0.339
				c0.334,0,0.591-0.111,0.771-0.333c0.179-0.222,0.269-0.538,0.269-0.949c0-0.412-0.09-0.731-0.269-0.955
				C-1645.46-191.47-1645.717-191.582-1646.052-191.582z"/>
			<path id="path3045" 
fill="#00ADEF" d="M-1641.153-193.28c-0.114-0.066-0.245-0.099-0.392-0.099
				c-0.413,0-0.619,0.233-0.619,0.699v0.509h0.872v0.666h-0.868v3.083h-0.849v-3.083h-0.641v-0.666h0.641v-0.608
				c0-0.395,0.129-0.707,0.388-0.935c0.259-0.228,0.582-0.343,0.97-0.343c0.21,0,0.376,0.023,0.498,0.069V-193.28z"/>
			<path id="path3047" 
fill="#00ADEF" d="M-1638.703-188.462
				c-0.166,0.083-0.384,0.125-0.655,0.125c-0.727,0-1.091-0.349-1.091-1.047v-2.12h-0.626v-0.666h0.626v-0.868l0.85-0.242v1.11
				h0.897v0.666h-0.897v1.875c0,0.222,0.04,0.381,0.121,0.476c0.08,0.095,0.215,0.143,0.402,0.143c0.144,0,0.269-0.041,0.373-0.125
				V-188.462L-1638.703-188.462z"/>
			<path id="path3049" 
fill="#00ADEF" d="M-1631.498-188.422h-0.955l-0.472-1.337h-2.065
				l-0.454,1.337h-0.952l1.966-5.25h0.981L-1631.498-188.422z M-1633.156-190.469l-0.729-2.094c-0.022-0.068-0.045-0.178-0.069-0.33
				h-0.014c-0.022,0.139-0.046,0.249-0.073,0.33l-0.721,2.094H-1633.156z"/>
			<path id="path3051" 
fill="#00ADEF" d="M-1628.1-191.816l-2.025,2.731h2.017v0.663h-3.207
				v-0.319l2.068-2.768h-1.871v-0.663h3.017V-191.816z"/>
			<path id="path3053" 
fill="#00ADEF" d="M-1624.113-188.422h-0.849v-0.593h-0.015
				c-0.246,0.454-0.63,0.681-1.149,0.681c-0.886,0-1.329-0.532-1.329-1.597v-2.24h0.849v2.153c0,0.674,0.26,1.011,0.78,1.011
				c0.251,0,0.458-0.093,0.621-0.278c0.163-0.185,0.244-0.428,0.244-0.729v-2.157h0.849L-1624.113-188.422z"/>
			<path id="path3055" 
fill="#00ADEF" d="M-1620.829-191.362c-0.103-0.081-0.25-0.121-0.443-0.121
				c-0.251,0-0.461,0.113-0.63,0.341c-0.168,0.227-0.253,0.536-0.253,0.926v1.794h-0.849v-3.749h0.849v0.772h0.015
				c0.083-0.263,0.21-0.469,0.383-0.617c0.172-0.148,0.364-0.222,0.576-0.222c0.154,0,0.271,0.024,0.351,0.07L-1620.829-191.362z"/>
			<path id="path3057" 
fill="#00ADEF" d="M-1617.047-190.066h-2.556
				c0.01,0.346,0.116,0.614,0.321,0.802c0.203,0.188,0.483,0.282,0.84,0.282c0.401,0,0.768-0.12,1.102-0.359v0.685
				c-0.342,0.215-0.793,0.322-1.355,0.322c-0.552,0-0.984-0.17-1.298-0.511c-0.314-0.34-0.47-0.819-0.47-1.437
				c0-0.584,0.173-1.059,0.518-1.426c0.345-0.367,0.774-0.551,1.287-0.551c0.513,0,0.909,0.165,1.19,0.494
				c0.28,0.329,0.421,0.787,0.421,1.373L-1617.047-190.066z M-1617.867-190.667c-0.004-0.305-0.074-0.542-0.216-0.712
				c-0.142-0.169-0.337-0.254-0.586-0.254c-0.244,0-0.451,0.089-0.62,0.268c-0.169,0.178-0.274,0.411-0.313,0.699L-1617.867-190.667
				L-1617.867-190.667z"/>
		</g>
	</g>
</g>
<g id="layer1" transform="translate(-319.56519,-508.66868)">
	<path id="path2550" fill="#2F97DB" d="M1292.057,529.747c-3.416,0.042-6.549,0.447-9.311,0.896
		c-6.475,1.063-12.092,2.559-18.074,5.863c-4.129,2.296-8.844,5.641-12.9,9.864c-14.283,14.813-23.48,36.372-15.037,58.772
		c10.768,28.514,36.988,32.244,51.529,27.454c0,0-25.914-8.882-36.422-34.835c-8.281-20.436-2.295-37.195,6.828-48.219
		c6.262-7.607,12.807-12.234,21.18-14.691c9.379-2.77,18.584-2.236,31.109-1.313C1304.26,530.549,1297.752,529.677,1292.057,529.747
		z M1299.576,536.024c-2.455,0.037-4.986,0.238-7.52,0.689c-20.264,3.623-35.57,24.463-36.834,40.217
		c-1.15,14.312,1.641,21.73,10.484,32.42c0.094,0.039,0.207,0.07,0.277,0.07c-4.387-6.857-8.963-20.659-6.832-31.043
		c2.559-12.512,10.34-27.705,34.285-31.179c21.764-3.151,31.469,2.314,42.561,11.796
		C1331.465,545.225,1316.766,535.76,1299.576,536.024z M1298.059,551.614c-7.301-0.041-14.877,1.652-21.385,6.069
		c-12.781,8.659-16.168,16.725-13.52,33.525c0.59-14.917,8.838-22.425,17.729-27.454c8.748-4.956,20.74-4.811,32.422-0.414
		c7.691,2.892,13.719,5.656,20.004,18.21c1.266-10.046-3.637-16.896-11.795-23.039
		C1316.34,554.624,1307.449,551.666,1298.059,551.614z M1310.406,566.858c-3.902-0.033-7.705,0.811-10.07,2.276
		c6.26-0.093,11.773,1.901,16.416,4.691c4.645,2.794,4.305,2.987,9.865,10.692c1.01-3.765-0.125-10.668-5.588-14.693
		C1318.299,567.813,1314.311,566.891,1310.406,566.858z"/>
	<path id="path2558" fill="#F78B11" d="M1303.026,585.69l-19.451,37.871h10.553l3.244-6.484h13.588l0.551,6.484h10.277
		l-3.447-37.871H1303.026z M1331.998,585.69l-8.004,37.871h8.623l2.277-10.762h1.518l4.07,10.762h10.139l-6.207-13.797
		l10.141-12.692h-9.52l-7.381,9.933h-1.52l4.555-21.314H1331.998z M1469.545,585.69l-1.379,6.691h8.621l1.449-6.691H1469.545z
		 M1309.166,593.278h0.068l1.242,16.418h-9.383L1309.166,593.278z M1369.799,596.796c-5.32,0.104-10.139,0.949-11.658,8.141h8.625
		c0.514-2.371,2.051-2.897,4.207-2.897c3.801,0,3.576,1.601,3.033,4.069l-0.896,4.209h-0.344c-0.307-3.03-4.158-3.037-6.623-3.037
		c-6.26,0-10.021,1.984-11.383,8.348c-1.432,6.758,1.816,8.21,7.865,8.21c3.027,0,7.125-0.575,8.553-4.209h0.277l-1.104,3.933h8.621
		l3.52-16.557c1.947-9.124-1.551-10.209-10.418-10.209C1371.303,596.796,1370.561,596.781,1369.799,596.796z M1406.428,596.796
		c-2.977,0-6.404,0.869-8.139,4.002h-0.348l0.83-3.726h-8.416l-5.656,26.489h8.691l3.174-15.038c0.68-3.185,1.725-5.104,5.311-5.104
		c3.027,0,2.811,1.645,2.414,4.069l-3.379,16.073h8.621l3.242-15.038c0.586-2.831,1.729-5.104,5.105-5.104s2.93,2.055,2.482,4.828
		l-3.311,15.314h8.691l3.863-18.143c1.314-6.156-1.283-8.623-7.381-8.623c-3.334,0-7.219,1.395-8.484,5.174h-0.414
		C1413.842,597.433,1410.158,596.796,1406.428,596.796z M1447.334,596.796c-5.332,0.104-10.117,0.949-11.658,8.141h8.693
		c0.514-2.371,1.957-2.897,4.137-2.897c3.779,0,3.646,1.601,3.105,4.069l-0.896,4.209h-0.416c-0.33-3.03-4.092-3.037-6.551-3.037
		c-6.24,0-10.021,1.984-11.383,8.348c-1.432,6.758,1.813,8.21,7.863,8.21c3.027,0,7.053-0.575,8.484-4.209h0.346l-1.174,3.933h8.693
		l3.518-16.557c1.947-9.124-1.549-10.209-10.416-10.209C1448.903,596.796,1448.096,596.781,1447.334,596.796z M1467.131,597.072
		l-5.588,26.489h8.623l5.658-26.489H1467.131z M1367.867,612.593c2.838,0,4.723,0.19,4.277,2.414
		c-0.609,2.773-1.813,3.242-5.449,3.242c-1.314,0-3.783-0.014-3.172-2.896C1364.035,612.934,1365.756,612.593,1367.867,612.593z
		 M1445.471,612.593c2.814,0,4.678,0.19,4.209,2.414c-0.588,2.773-1.746,3.242-5.381,3.242c-1.314,0-3.783-0.014-3.174-2.896
		C1441.617,612.934,1443.336,612.593,1445.471,612.593z"/>
</g>
<g>
	<path fill="#00ABEC" d="M52.476,125.604h-4.858v-19.105c0-1.564,0.096-3.479,0.288-5.744h-0.083
		c-0.302,1.29-0.57,2.217-0.803,2.779l-8.812,22.07h-3.376L26,103.698c-0.247-0.646-0.508-1.627-0.783-2.944h-0.082
		c0.109,1.181,0.165,3.109,0.165,5.785v19.064h-4.529V96.081h6.897l7.762,19.661c0.59,1.51,0.974,2.635,1.153,3.376h0.103
		c0.507-1.551,0.919-2.703,1.235-3.459l7.906-19.578h6.65V125.604z"/>
	<path fill="#00ABEC" d="M77.058,116.359H62.687c0.055,1.949,0.655,3.452,1.802,4.509c1.146,1.058,2.721,1.585,4.725,1.585
		c2.251,0,4.316-0.672,6.197-2.018v3.851c-1.922,1.208-4.461,1.812-7.618,1.812c-3.102,0-5.535-0.957-7.298-2.872
		s-2.646-4.608-2.646-8.081c0-3.28,0.971-5.953,2.913-8.019c1.942-2.065,4.354-3.099,7.237-3.099s5.112,0.927,6.691,2.779
		c1.578,1.854,2.368,4.427,2.368,7.721V116.359z M72.446,112.983c-0.014-1.716-0.419-3.051-1.215-4.005
		c-0.796-0.953-1.894-1.431-3.294-1.431c-1.373,0-2.536,0.501-3.49,1.503s-1.541,2.313-1.76,3.933H72.446z"/>
	<path fill="#00ABEC" d="M100.774,125.604h-4.776v-3.582h-0.082c-1.538,2.718-3.905,4.076-7.103,4.076
		c-2.594,0-4.67-0.943-6.228-2.831c-1.558-1.887-2.337-4.457-2.337-7.71c0-3.486,0.861-6.279,2.583-8.379
		c1.723-2.101,4.018-3.15,6.887-3.15c2.841,0,4.907,1.14,6.197,3.418h0.082V94.393h4.776V125.604z M96.06,115.969v-2.759
		c0-1.496-0.487-2.766-1.462-3.809s-2.217-1.565-3.727-1.565c-1.784,0-3.188,0.666-4.21,1.997c-1.022,1.332-1.534,3.178-1.534,5.538
		c0,2.142,0.49,3.833,1.472,5.075s2.303,1.863,3.963,1.863c1.633,0,2.958-0.601,3.974-1.802
		C95.552,119.308,96.06,117.794,96.06,115.969z"/>
	<path fill="#00ABEC" d="M109.421,100.096c-0.782,0-1.452-0.254-2.007-0.762c-0.556-0.508-0.834-1.153-0.834-1.936
		s0.278-1.435,0.834-1.956c0.556-0.521,1.225-0.782,2.007-0.782c0.81,0,1.496,0.261,2.059,0.782s0.844,1.174,0.844,1.956
		c0,0.741-0.281,1.376-0.844,1.904S110.231,100.096,109.421,100.096z M111.789,125.604h-4.776v-21.082h4.776V125.604z"/>
	<path fill="#00ABEC" d="M134.209,125.604h-4.632v-3.294h-0.083c-1.455,2.525-3.589,3.788-6.403,3.788
		c-2.073,0-3.695-0.563-4.869-1.688c-1.173-1.125-1.76-2.614-1.76-4.468c0-3.979,2.292-6.3,6.876-6.958l6.259-0.886
		c0-3.006-1.428-4.509-4.282-4.509c-2.512,0-4.776,0.865-6.794,2.595v-4.18c2.223-1.317,4.79-1.977,7.7-1.977
		c5.325,0,7.988,2.622,7.988,7.864V125.604z M129.598,115.248l-4.426,0.617c-1.373,0.179-2.406,0.512-3.099,0.999
		c-0.693,0.487-1.04,1.342-1.04,2.563c0,0.893,0.319,1.624,0.957,2.193s1.493,0.854,2.563,0.854c1.455,0,2.659-0.512,3.613-1.534
		s1.431-2.31,1.431-3.86V115.248z"/>
	<path fill="#00ABEC" d="M150.803,124.43v-5.044c0.453,0.412,0.992,0.782,1.616,1.112c0.625,0.329,1.287,0.607,1.987,0.834
		c0.7,0.226,1.4,0.401,2.1,0.524c0.7,0.124,1.345,0.186,1.935,0.186c2.059,0,3.593-0.343,4.602-1.029s1.513-1.682,1.513-2.985
		c0-0.7-0.168-1.308-0.504-1.822c-0.337-0.515-0.807-0.984-1.411-1.41c-0.604-0.425-1.314-0.834-2.131-1.225
		c-0.816-0.392-1.691-0.8-2.625-1.226c-1.002-0.535-1.936-1.077-2.8-1.626s-1.616-1.156-2.254-1.822
		c-0.638-0.665-1.139-1.417-1.503-2.254c-0.364-0.838-0.545-1.819-0.545-2.944c0-1.387,0.312-2.591,0.937-3.613
		s1.448-1.866,2.471-2.532s2.186-1.16,3.49-1.482c1.304-0.322,2.635-0.483,3.994-0.483c3.088,0,5.339,0.35,6.752,1.05v4.838
		c-1.674-1.208-3.829-1.812-6.464-1.812c-0.728,0-1.452,0.068-2.172,0.206c-0.721,0.137-1.366,0.363-1.936,0.679
		c-0.569,0.316-1.033,0.721-1.39,1.215s-0.535,1.092-0.535,1.791c0,0.659,0.137,1.229,0.412,1.709s0.676,0.92,1.205,1.317
		c0.528,0.398,1.173,0.786,1.935,1.163c0.762,0.378,1.644,0.786,2.646,1.226c1.029,0.535,2,1.098,2.913,1.688
		c0.913,0.59,1.716,1.242,2.409,1.955c0.693,0.714,1.242,1.507,1.647,2.378c0.404,0.872,0.607,1.863,0.607,2.976
		c0,1.496-0.302,2.759-0.906,3.788s-1.417,1.866-2.439,2.512c-1.022,0.645-2.2,1.111-3.531,1.399
		c-1.332,0.288-2.738,0.433-4.221,0.433c-0.494,0-1.102-0.038-1.822-0.113c-0.721-0.075-1.458-0.186-2.213-0.329
		c-0.755-0.145-1.469-0.319-2.141-0.525S151.214,124.69,150.803,124.43z"/>
	<path fill="#00ABEC" d="M192.432,116.359h-14.371c0.055,1.949,0.655,3.452,1.802,4.509c1.146,1.058,2.721,1.585,4.725,1.585
		c2.251,0,4.316-0.672,6.197-2.018v3.851c-1.922,1.208-4.461,1.812-7.618,1.812c-3.102,0-5.535-0.957-7.298-2.872
		s-2.646-4.608-2.646-8.081c0-3.28,0.971-5.953,2.913-8.019c1.942-2.065,4.354-3.099,7.237-3.099s5.112,0.927,6.691,2.779
		c1.578,1.854,2.368,4.427,2.368,7.721V116.359z M187.82,112.983c-0.014-1.716-0.419-3.051-1.215-4.005
		c-0.796-0.953-1.894-1.431-3.294-1.431c-1.373,0-2.536,0.501-3.49,1.503s-1.541,2.313-1.76,3.933H187.82z"/>
	<path fill="#00ABEC" d="M209.21,109.071c-0.577-0.453-1.407-0.679-2.491-0.679c-1.414,0-2.594,0.638-3.541,1.914
		s-1.42,3.013-1.42,5.209v10.088h-4.776v-21.082h4.776v4.344h0.082c0.467-1.481,1.184-2.638,2.151-3.469
		c0.968-0.83,2.049-1.245,3.243-1.245c0.865,0,1.523,0.13,1.977,0.391V109.071z"/>
	<path fill="#00ABEC" d="M232.433,104.521l-8.153,21.082h-5.167l-7.762-21.082h5.188l4.673,14.741
		c0.357,1.084,0.576,2.031,0.659,2.841h0.062c0.124-1.016,0.315-1.936,0.576-2.759l4.9-14.823H232.433z"/>
	<path fill="#00ABEC" d="M238.074,100.096c-0.782,0-1.452-0.254-2.007-0.762c-0.556-0.508-0.834-1.153-0.834-1.936
		s0.278-1.435,0.834-1.956c0.556-0.521,1.225-0.782,2.007-0.782c0.81,0,1.496,0.261,2.059,0.782s0.844,1.174,0.844,1.956
		c0,0.741-0.281,1.376-0.844,1.904S238.884,100.096,238.074,100.096z M240.442,125.604h-4.776v-21.082h4.776V125.604z"/>
	<path fill="#00ABEC" d="M261.771,124.636c-1.688,0.975-3.686,1.462-5.991,1.462c-3.129,0-5.655-0.978-7.576-2.934
		c-1.922-1.956-2.882-4.491-2.882-7.607c0-3.473,1.033-6.262,3.099-8.369c2.065-2.106,4.828-3.16,8.286-3.16
		c1.922,0,3.617,0.337,5.085,1.009v4.447c-1.469-1.098-3.034-1.647-4.694-1.647c-2.018,0-3.672,0.684-4.962,2.049
		c-1.29,1.366-1.935,3.153-1.935,5.363c0,2.182,0.607,3.904,1.822,5.167c1.215,1.264,2.844,1.895,4.89,1.895
		c1.716,0,3.335-0.61,4.859-1.832V124.636z"/>
	<path fill="#00ABEC" d="M284.356,116.359h-14.371c0.055,1.949,0.655,3.452,1.802,4.509c1.146,1.058,2.721,1.585,4.725,1.585
		c2.251,0,4.316-0.672,6.197-2.018v3.851c-1.922,1.208-4.461,1.812-7.618,1.812c-3.102,0-5.535-0.957-7.298-2.872
		s-2.646-4.608-2.646-8.081c0-3.28,0.971-5.953,2.913-8.019c1.942-2.065,4.354-3.099,7.237-3.099s5.112,0.927,6.691,2.779
		c1.578,1.854,2.368,4.427,2.368,7.721V116.359z M279.744,112.983c-0.014-1.716-0.419-3.051-1.215-4.005
		c-0.796-0.953-1.894-1.431-3.294-1.431c-1.373,0-2.536,0.501-3.49,1.503s-1.541,2.313-1.76,3.933H279.744z"/>
	<path fill="#00ABEC" d="M287.588,124.944v-4.426c1.784,1.358,3.754,2.038,5.909,2.038c2.882,0,4.324-0.851,4.324-2.553
		c0-0.48-0.124-0.889-0.371-1.226c-0.247-0.336-0.58-0.635-0.999-0.896c-0.419-0.261-0.913-0.494-1.482-0.699
		c-0.57-0.206-1.205-0.439-1.904-0.7c-0.865-0.343-1.644-0.707-2.337-1.092c-0.693-0.384-1.27-0.819-1.729-1.307
		s-0.806-1.04-1.04-1.657c-0.233-0.618-0.35-1.339-0.35-2.162c0-1.016,0.24-1.911,0.721-2.687s1.125-1.428,1.936-1.956
		c0.81-0.528,1.729-0.927,2.758-1.194c1.03-0.268,2.093-0.401,3.191-0.401c1.949,0,3.692,0.296,5.229,0.886v4.179
		c-1.482-1.016-3.184-1.523-5.105-1.523c-0.604,0-1.15,0.063-1.637,0.186c-0.487,0.124-0.903,0.295-1.246,0.515
		c-0.343,0.22-0.611,0.483-0.803,0.793c-0.192,0.309-0.289,0.648-0.289,1.019c0,0.453,0.096,0.838,0.289,1.153
		c0.192,0.315,0.477,0.594,0.854,0.834s0.831,0.46,1.359,0.658c0.528,0.199,1.136,0.416,1.822,0.648
		c0.906,0.371,1.719,0.749,2.439,1.133c0.721,0.385,1.334,0.82,1.843,1.308c0.507,0.487,0.898,1.05,1.173,1.688
		c0.274,0.639,0.412,1.397,0.412,2.275c0,1.07-0.247,2.004-0.741,2.8s-1.153,1.455-1.976,1.977
		c-0.824,0.521-1.774,0.909-2.852,1.163c-1.078,0.254-2.213,0.381-3.407,0.381C291.273,126.098,289.276,125.713,287.588,124.944z"/>
</g>
<g>
	<path fill="#00ABEC" d="M854.064,63.615c0.576-2.592,1.008-5.33,1.008-7.922c0-10.658-5.191-20.021-13.266-25.781L829.117,51.09
		c-0.576,0.863-0.145,1.301,0.863,1.301h16.152c1.01,0,1.154,0.572,0.576,1.291l-41.963,47.888c-0.576,0.721-0.865,0.61-0.434-0.255
		l13.27-32.304c0.287-0.863-0.146-1.62-1.154-1.62h-12.834c-1.01,0-1.441-0.665-1.154-1.528l15.43-41.165
		c-10.383,2.018-18.891,9.233-22.928,18.737c-4.037-4.753-10.094-7.77-16.871-7.77c-12.113,0-22.063,9.941-22.063,22.186
		c0,2.16,0.287,4.179,0.865,6.05c-9.364,3.525-16.298,12.125-17.082,22.49H574.378v-7.216l-32.007,8.578
		c-0.075-6.165-5.091-11.142-11.272-11.142c-5.719,0-10.433,4.262-11.168,9.779H422.22c-0.444-6.98-3.354-13.837-8.746-19.184
		c-11.753-11.66-30.72-11.66-42.471,0c-11.75,11.652-11.75,30.473,0,42.133c11.75,11.652,30.717,11.652,42.471,0
		c5.587-5.544,8.512-12.708,8.786-19.949h97.671c0.735,5.518,5.449,9.779,11.168,9.779c6.182,0,11.197-4.977,11.272-11.142
		l32.007,8.578v-7.216h165.36c0.546,13.919,12.002,25,26.073,25h80.32c14.42,0,26.1-11.635,26.1-26.037
		C872.232,76.688,864.589,66.926,854.064,63.615z M384.378,107.699V70.066l28.658,18.82L384.378,107.699z"/>
	<path fill="#00ABEC" d="M349.496,74.773c6.39-17.18,21.576-32.113,42.605-32.113c21.235,0,36.355,14.934,42.538,32.113
		c2.889,7.359,6.739,6.953,15.739,6.953V54.32L392.275,22l-57.896,33.34v26.387C343.378,81.52,346.814,82.133,349.496,74.773z"/>
	<path fill="#00ABEC" d="M434.706,102.645c-6.183,17.387-21.438,30.244-42.674,30.244c-21.029,0-36.284-12.843-42.674-30.229
		c-1.649-4.293-4.125-5.269-9.485-5.269h-5.318h-0.176v22.789l58.517,32.113l57.483-33.34V97.391h-6.188
		C438.624,97.391,436.152,98.965,434.706,102.645z"/>
</g>
<g>
	<path fill="#00ABEC" d="M751.525,163.554c-1.071,0.555-2.403,0.833-3.996,0.833c-2.062,0-3.714-0.651-4.956-1.953
		c-1.243-1.302-1.864-3.011-1.864-5.126c0-2.273,0.699-4.11,2.097-5.512c1.398-1.401,3.164-2.102,5.299-2.102
		c1.375,0,2.515,0.194,3.421,0.585v2.34c-0.959-0.568-2.017-0.854-3.173-0.854c-1.54,0-2.787,0.493-3.742,1.478
		c-0.955,0.985-1.433,2.3-1.433,3.945c0,1.566,0.446,2.814,1.338,3.743c0.893,0.929,2.065,1.393,3.52,1.393
		c1.342,0,2.505-0.317,3.49-0.951V163.554z"/>
	<path fill="#00ABEC" d="M754.221,164.148v-14.217h4.104c5.24,0,7.861,2.311,7.861,6.93c0,2.194-0.728,3.958-2.181,5.289
		c-1.454,1.332-3.404,1.998-5.85,1.998H754.221z M756.571,151.935v10.222h1.884c1.658,0,2.949-0.456,3.871-1.368
		s1.383-2.201,1.383-3.867c0-3.324-1.722-4.986-5.165-4.986H756.571z"/>
	<path fill="#00ABEC" d="M780.839,164.148h-2.577l-6.791-10.449c-0.172-0.265-0.314-0.538-0.427-0.823h-0.059
		c0.053,0.305,0.079,0.956,0.079,1.953v9.319h-2.28v-14.217h2.746l6.563,10.202c0.278,0.423,0.456,0.713,0.536,0.872h0.039
		c-0.066-0.377-0.099-1.015-0.099-1.913v-9.161h2.27V164.148z"/>
	<path fill="#00ABEC" d="M797.921,164.148h-7.98v-14.217h7.663v2.003H792.3v4.025h4.888v1.992H792.3v4.204h5.621V164.148z"/>
	<path fill="#00ABEC" d="M809.421,164.148h-2.3v-1.725h-0.04c-0.74,1.309-1.88,1.963-3.42,1.963c-1.249,0-2.249-0.455-2.999-1.363
		c-0.75-0.909-1.125-2.146-1.125-3.713c0-1.679,0.415-3.023,1.244-4.035c0.829-1.011,1.935-1.517,3.316-1.517
		c1.368,0,2.362,0.549,2.983,1.646h0.04v-6.285h2.3V164.148z M807.151,159.509v-1.328c0-0.721-0.234-1.332-0.703-1.834
		c-0.47-0.503-1.067-0.754-1.795-0.754c-0.859,0-1.535,0.32-2.027,0.962c-0.492,0.641-0.738,1.53-0.738,2.667
		c0,1.03,0.236,1.846,0.709,2.443c0.473,0.599,1.108,0.897,1.908,0.897c0.786,0,1.424-0.289,1.913-0.868
		C806.907,161.116,807.151,160.388,807.151,159.509z"/>
	<path fill="#00ABEC" d="M821.665,163.336c0,3.728-1.873,5.591-5.621,5.591c-1.321,0-2.475-0.222-3.46-0.664v-2.102
		c1.11,0.635,2.165,0.951,3.163,0.951c2.412,0,3.618-1.187,3.618-3.559v-1.11h-0.039c-0.761,1.295-1.904,1.943-3.431,1.943
		c-1.236,0-2.232-0.451-2.989-1.354s-1.135-2.113-1.135-3.634c0-1.725,0.406-3.096,1.22-4.114c0.813-1.018,1.93-1.526,3.351-1.526
		c1.342,0,2.336,0.549,2.984,1.646h0.039v-1.407h2.3V163.336z M819.384,159.499v-1.318c0-0.714-0.236-1.324-0.708-1.829
		c-0.473-0.506-1.063-0.759-1.771-0.759c-0.872,0-1.555,0.322-2.047,0.967s-0.738,1.545-0.738,2.701
		c0,0.998,0.236,1.796,0.709,2.395c0.473,0.598,1.099,0.897,1.878,0.897c0.794,0,1.438-0.286,1.934-0.858
		C819.137,161.123,819.384,160.391,819.384,159.499z"/>
	<path fill="#00ABEC" d="M833.253,159.697h-6.919c0.026,0.938,0.315,1.662,0.867,2.171s1.31,0.764,2.275,0.764
		c1.084,0,2.078-0.324,2.983-0.972v1.854c-0.925,0.582-2.147,0.873-3.668,0.873c-1.493,0-2.665-0.461-3.515-1.384
		c-0.849-0.922-1.273-2.219-1.273-3.891c0-1.58,0.468-2.867,1.402-3.861c0.936-0.995,2.097-1.492,3.485-1.492
		c1.388,0,2.462,0.446,3.222,1.338c0.76,0.893,1.14,2.132,1.14,3.718V159.697z M831.033,158.071
		c-0.006-0.826-0.201-1.469-0.584-1.929c-0.384-0.459-0.912-0.688-1.587-0.688c-0.661,0-1.221,0.241-1.68,0.724
		c-0.46,0.482-0.742,1.113-0.848,1.894H831.033z"/>
	<path fill="#00ABEC" d="M853.339,164.148h-2.577l-6.791-10.449c-0.172-0.265-0.314-0.538-0.427-0.823h-0.059
		c0.053,0.305,0.079,0.956,0.079,1.953v9.319h-2.28v-14.217h2.746l6.563,10.202c0.278,0.423,0.456,0.713,0.536,0.872h0.039
		c-0.066-0.377-0.099-1.015-0.099-1.913v-9.161h2.27V164.148z"/>
	<path fill="#00ABEC" d="M861.102,164.387c-1.566,0-2.817-0.475-3.753-1.423c-0.935-0.948-1.402-2.206-1.402-3.772
		c0-1.705,0.487-3.037,1.462-3.995s2.289-1.438,3.941-1.438c1.586,0,2.821,0.466,3.707,1.397c0.886,0.933,1.329,2.225,1.329,3.877
		c0,1.619-0.478,2.916-1.433,3.891C863.999,163.899,862.714,164.387,861.102,164.387z M861.21,155.593
		c-0.898,0-1.609,0.314-2.131,0.941c-0.522,0.629-0.783,1.494-0.783,2.598c0,1.064,0.264,1.902,0.793,2.514
		c0.528,0.611,1.235,0.917,2.121,0.917c0.906,0,1.602-0.301,2.087-0.902c0.486-0.602,0.729-1.457,0.729-2.567
		c0-1.117-0.243-1.979-0.729-2.588C862.812,155.896,862.117,155.593,861.21,155.593z"/>
	<path fill="#00ABEC" d="M877.955,164.148h-2.3v-1.725h-0.04c-0.74,1.309-1.88,1.963-3.42,1.963c-1.249,0-2.249-0.455-2.999-1.363
		c-0.75-0.909-1.125-2.146-1.125-3.713c0-1.679,0.415-3.023,1.244-4.035c0.829-1.011,1.935-1.517,3.316-1.517
		c1.368,0,2.362,0.549,2.983,1.646h0.04v-6.285h2.3V164.148z M875.684,159.509v-1.328c0-0.721-0.234-1.332-0.703-1.834
		c-0.47-0.503-1.067-0.754-1.795-0.754c-0.859,0-1.535,0.32-2.027,0.962c-0.492,0.641-0.738,1.53-0.738,2.667
		c0,1.03,0.236,1.846,0.709,2.443c0.473,0.599,1.108,0.897,1.908,0.897c0.786,0,1.424-0.289,1.913-0.868
		C875.44,161.116,875.684,160.388,875.684,159.509z"/>
	<path fill="#00ABEC" d="M889.554,159.697h-6.919c0.026,0.938,0.315,1.662,0.867,2.171s1.31,0.764,2.275,0.764
		c1.084,0,2.078-0.324,2.983-0.972v1.854c-0.925,0.582-2.147,0.873-3.668,0.873c-1.493,0-2.665-0.461-3.515-1.384
		c-0.849-0.922-1.273-2.219-1.273-3.891c0-1.58,0.468-2.867,1.402-3.861c0.936-0.995,2.097-1.492,3.485-1.492
		c1.388,0,2.462,0.446,3.222,1.338c0.76,0.893,1.14,2.132,1.14,3.718V159.697z M887.333,158.071
		c-0.006-0.826-0.201-1.469-0.584-1.929c-0.384-0.459-0.912-0.688-1.587-0.688c-0.661,0-1.221,0.241-1.68,0.724
		c-0.46,0.482-0.742,1.113-0.848,1.894H887.333z"/>
	<path fill="#00ABEC" d="M891.111,163.831V161.7c0.859,0.654,1.808,0.981,2.846,0.981c1.388,0,2.082-0.41,2.082-1.229
		c0-0.231-0.06-0.428-0.179-0.59s-0.279-0.306-0.48-0.432c-0.202-0.125-0.44-0.238-0.714-0.337c-0.274-0.1-0.58-0.212-0.917-0.337
		c-0.417-0.165-0.792-0.341-1.126-0.525c-0.333-0.186-0.611-0.396-0.832-0.63c-0.222-0.234-0.389-0.501-0.501-0.798
		c-0.112-0.298-0.169-0.645-0.169-1.041c0-0.489,0.116-0.92,0.348-1.294c0.23-0.373,0.542-0.688,0.932-0.941
		c0.39-0.255,0.833-0.446,1.328-0.575c0.496-0.129,1.008-0.193,1.537-0.193c0.938,0,1.777,0.143,2.518,0.427v2.012
		c-0.714-0.488-1.533-0.733-2.458-0.733c-0.291,0-0.554,0.03-0.788,0.089c-0.235,0.06-0.435,0.143-0.601,0.248
		c-0.165,0.106-0.294,0.233-0.386,0.382c-0.093,0.148-0.14,0.313-0.14,0.491c0,0.218,0.047,0.402,0.14,0.555
		c0.092,0.152,0.229,0.286,0.411,0.401c0.182,0.116,0.399,0.222,0.654,0.317c0.254,0.096,0.547,0.2,0.877,0.313
		c0.437,0.179,0.828,0.36,1.175,0.545c0.348,0.186,0.643,0.396,0.888,0.63c0.244,0.234,0.433,0.506,0.564,0.813
		c0.133,0.308,0.199,0.673,0.199,1.096c0,0.516-0.119,0.965-0.357,1.349c-0.238,0.383-0.555,0.7-0.952,0.951
		c-0.396,0.252-0.854,0.438-1.373,0.561c-0.519,0.122-1.065,0.184-1.641,0.184C892.885,164.387,891.924,164.201,891.111,163.831z"/>
</g>
<g>
	<path fill="#00ABEC" d="M481.583,30.399v-2.429c0.218,0.198,0.478,0.377,0.778,0.535c0.301,0.159,0.619,0.293,0.956,0.402
		c0.338,0.108,0.675,0.192,1.012,0.252s0.647,0.09,0.932,0.09c0.991,0,1.73-0.165,2.216-0.496c0.485-0.33,0.729-0.81,0.729-1.438
		c0-0.337-0.081-0.629-0.243-0.877c-0.161-0.248-0.388-0.475-0.679-0.68c-0.291-0.204-0.633-0.401-1.026-0.59
		c-0.393-0.188-0.814-0.385-1.264-0.59c-0.482-0.258-0.932-0.519-1.349-0.783c-0.416-0.264-0.778-0.557-1.085-0.877
		c-0.308-0.32-0.549-0.683-0.724-1.086c-0.176-0.402-0.263-0.875-0.263-1.417c0-0.668,0.15-1.248,0.451-1.74
		c0.3-0.492,0.697-0.898,1.189-1.22c0.492-0.32,1.052-0.559,1.681-0.714c0.627-0.155,1.269-0.232,1.923-0.232
		c1.487,0,2.571,0.168,3.252,0.506v2.329c-0.807-0.581-1.844-0.872-3.113-0.872c-0.351,0-0.699,0.033-1.046,0.099
		c-0.347,0.066-0.657,0.176-0.932,0.327c-0.274,0.152-0.498,0.348-0.669,0.585c-0.172,0.238-0.258,0.525-0.258,0.862
		c0,0.317,0.065,0.592,0.198,0.823c0.132,0.231,0.325,0.443,0.58,0.635c0.254,0.191,0.564,0.378,0.932,0.56
		c0.366,0.183,0.791,0.379,1.273,0.59c0.496,0.258,0.964,0.529,1.403,0.813s0.826,0.598,1.16,0.941
		c0.333,0.344,0.598,0.726,0.793,1.146c0.194,0.42,0.292,0.897,0.292,1.433c0,0.72-0.146,1.328-0.437,1.824
		c-0.29,0.495-0.682,0.898-1.175,1.209c-0.492,0.311-1.059,0.535-1.7,0.674c-0.641,0.14-1.318,0.209-2.032,0.209
		c-0.237,0-0.53-0.019-0.877-0.055s-0.702-0.09-1.065-0.159c-0.364-0.069-0.708-0.153-1.031-0.252
		C482.042,30.638,481.781,30.525,481.583,30.399z"/>
	<path fill="#00ABEC" d="M497.801,30.855c-0.449,0.225-1.041,0.337-1.774,0.337c-1.97,0-2.955-0.944-2.955-2.835v-5.74h-1.694
		v-1.804h1.694v-2.35l2.301-0.654v3.004h2.429v1.804h-2.429v5.076c0,0.602,0.108,1.031,0.327,1.289
		c0.218,0.258,0.581,0.387,1.09,0.387c0.391,0,0.728-0.112,1.012-0.338V30.855z"/>
	<path fill="#00ABEC" d="M505.673,23.004c-0.277-0.218-0.678-0.327-1.199-0.327c-0.681,0-1.249,0.308-1.705,0.922
		c-0.456,0.615-0.685,1.451-0.685,2.509v4.857h-2.3V20.813h2.3v2.092h0.04c0.225-0.714,0.569-1.271,1.036-1.671
		c0.466-0.399,0.986-0.6,1.561-0.6c0.417,0,0.734,0.063,0.952,0.188V23.004z"/>
	<path fill="#00ABEC" d="M515.715,26.514h-6.919c0.026,0.938,0.315,1.662,0.867,2.171s1.31,0.764,2.275,0.764
		c1.084,0,2.078-0.324,2.983-0.972v1.854c-0.925,0.582-2.147,0.873-3.668,0.873c-1.493,0-2.665-0.461-3.515-1.384
		c-0.849-0.922-1.273-2.219-1.273-3.891c0-1.58,0.468-2.867,1.402-3.861c0.936-0.995,2.097-1.492,3.485-1.492
		c1.388,0,2.462,0.446,3.222,1.338c0.76,0.893,1.14,2.132,1.14,3.718V26.514z M513.495,24.888c-0.006-0.826-0.201-1.469-0.584-1.929
		c-0.384-0.459-0.912-0.688-1.587-0.688c-0.661,0-1.221,0.241-1.68,0.724c-0.46,0.482-0.742,1.113-0.848,1.894H513.495z"/>
	<path fill="#00ABEC" d="M525.699,30.965h-2.23v-1.586h-0.04c-0.7,1.216-1.728,1.824-3.083,1.824c-0.998,0-1.779-0.271-2.345-0.813
		c-0.564-0.542-0.848-1.259-0.848-2.151c0-1.916,1.104-3.033,3.312-3.351l3.014-0.427c0-1.447-0.688-2.171-2.062-2.171
		c-1.21,0-2.301,0.417-3.271,1.249v-2.012c1.07-0.635,2.306-0.952,3.707-0.952c2.564,0,3.847,1.263,3.847,3.787V30.965z
		 M523.478,25.979l-2.131,0.297c-0.661,0.086-1.159,0.246-1.492,0.481c-0.334,0.234-0.501,0.646-0.501,1.233
		c0,0.43,0.153,0.782,0.461,1.057s0.719,0.411,1.234,0.411c0.7,0,1.28-0.246,1.74-0.738c0.459-0.492,0.688-1.112,0.688-1.859V25.979
		z"/>
	<path fill="#00ABEC" d="M543.682,30.965h-2.3v-5.532c0-1.063-0.15-1.834-0.451-2.31s-0.808-0.714-1.521-0.714
		c-0.602,0-1.112,0.301-1.532,0.902c-0.419,0.602-0.629,1.322-0.629,2.161v5.492h-2.311v-5.721c0-1.89-0.667-2.835-2.002-2.835
		c-0.621,0-1.132,0.284-1.532,0.853c-0.399,0.568-0.6,1.306-0.6,2.211v5.492h-2.3V20.813h2.3v1.605h0.04
		c0.733-1.229,1.801-1.844,3.202-1.844c0.7,0,1.313,0.193,1.839,0.58s0.884,0.894,1.075,1.521c0.754-1.401,1.877-2.102,3.371-2.102
		c2.233,0,3.351,1.378,3.351,4.134V30.965z"/>
	<path fill="#00ABEC" d="M547.648,18.682c-0.377,0-0.699-0.122-0.967-0.367c-0.268-0.244-0.401-0.555-0.401-0.932
		s0.134-0.69,0.401-0.941s0.59-0.377,0.967-0.377c0.39,0,0.72,0.126,0.991,0.377c0.271,0.251,0.406,0.564,0.406,0.941
		c0,0.357-0.136,0.663-0.406,0.917C548.368,18.555,548.038,18.682,547.648,18.682z M548.788,30.965h-2.3V20.813h2.3V30.965z"/>
	<path fill="#00ABEC" d="M560.833,30.965h-2.3v-5.721c0-1.896-0.671-2.845-2.013-2.845c-0.7,0-1.278,0.263-1.734,0.788
		s-0.685,1.188-0.685,1.987v5.79h-2.31V20.813h2.31v1.685h0.04c0.76-1.281,1.857-1.923,3.291-1.923c1.104,0,1.946,0.358,2.528,1.075
		c0.581,0.718,0.872,1.754,0.872,3.108V30.965z"/>
	<path fill="#00ABEC" d="M572.878,30.152c0,3.728-1.873,5.591-5.621,5.591c-1.321,0-2.475-0.222-3.46-0.664v-2.102
		c1.11,0.635,2.165,0.951,3.163,0.951c2.412,0,3.618-1.187,3.618-3.559v-1.11h-0.039c-0.761,1.295-1.904,1.943-3.431,1.943
		c-1.236,0-2.232-0.451-2.989-1.354s-1.135-2.113-1.135-3.634c0-1.725,0.406-3.096,1.22-4.114c0.813-1.018,1.93-1.526,3.351-1.526
		c1.342,0,2.336,0.549,2.984,1.646h0.039v-1.407h2.3V30.152z M570.598,26.315v-1.318c0-0.714-0.236-1.324-0.708-1.829
		c-0.473-0.506-1.063-0.759-1.771-0.759c-0.872,0-1.555,0.322-2.047,0.967s-0.738,1.545-0.738,2.701
		c0,0.998,0.236,1.796,0.709,2.395c0.473,0.598,1.099,0.897,1.878,0.897c0.794,0,1.438-0.286,1.934-0.858
		C570.351,27.939,570.598,27.207,570.598,26.315z"/>
	<path fill="#00ABEC" d="M495.448,55.329h-7.98V41.112h7.663v2.003h-5.304v4.025h4.888v1.992h-4.888v4.204h5.621V55.329z"/>
	<path fill="#00ABEC" d="M506.759,55.329h-2.3v-5.721c0-1.896-0.671-2.845-2.013-2.845c-0.7,0-1.278,0.263-1.734,0.788
		s-0.685,1.188-0.685,1.987v5.79h-2.31V45.178h2.31v1.685h0.04c0.76-1.281,1.857-1.923,3.291-1.923c1.104,0,1.946,0.358,2.528,1.075
		c0.581,0.718,0.872,1.754,0.872,3.108V55.329z"/>
	<path fill="#00ABEC" d="M518.794,55.329h-2.3v-1.725h-0.04c-0.74,1.309-1.88,1.963-3.42,1.963c-1.249,0-2.249-0.455-2.999-1.363
		c-0.75-0.909-1.125-2.146-1.125-3.713c0-1.679,0.415-3.023,1.244-4.035c0.829-1.011,1.935-1.517,3.316-1.517
		c1.368,0,2.362,0.549,2.983,1.646h0.04V40.3h2.3V55.329z M516.524,50.689v-1.328c0-0.721-0.234-1.332-0.703-1.834
		c-0.47-0.503-1.067-0.754-1.795-0.754c-0.859,0-1.535,0.32-2.027,0.962c-0.492,0.641-0.738,1.53-0.738,2.667
		c0,1.03,0.236,1.846,0.709,2.443c0.473,0.599,1.108,0.897,1.908,0.897c0.786,0,1.424-0.289,1.913-0.868
		C516.28,52.297,516.524,51.568,516.524,50.689z"/>
	<path fill="#00ABEC" d="M524.138,53.832h-0.04v6.166h-2.3v-14.82h2.3v1.784h0.04c0.786-1.349,1.937-2.022,3.45-2.022
		c1.288,0,2.293,0.453,3.014,1.358c0.72,0.905,1.08,2.121,1.08,3.648c0,1.691-0.406,3.047-1.219,4.064
		c-0.813,1.018-1.924,1.526-3.331,1.526C525.836,55.537,524.838,54.969,524.138,53.832z M524.079,49.827v1.259
		c0,0.74,0.236,1.368,0.709,1.884c0.472,0.516,1.072,0.773,1.799,0.773c0.853,0,1.521-0.332,2.008-0.997
		c0.485-0.664,0.729-1.591,0.729-2.78c0-0.998-0.227-1.779-0.679-2.345c-0.453-0.565-1.066-0.848-1.839-0.848
		c-0.82,0-1.479,0.291-1.979,0.872C524.328,48.228,524.079,48.954,524.079,49.827z"/>
	<path fill="#00ABEC" d="M538.534,55.567c-1.566,0-2.817-0.475-3.753-1.423c-0.935-0.948-1.402-2.206-1.402-3.772
		c0-1.705,0.487-3.037,1.462-3.995s2.289-1.438,3.941-1.438c1.586,0,2.821,0.466,3.707,1.397c0.886,0.933,1.329,2.225,1.329,3.877
		c0,1.619-0.478,2.916-1.433,3.891C541.43,55.08,540.146,55.567,538.534,55.567z M538.642,46.773c-0.898,0-1.609,0.314-2.131,0.941
		c-0.522,0.629-0.783,1.494-0.783,2.598c0,1.064,0.264,1.902,0.793,2.514c0.528,0.611,1.235,0.917,2.121,0.917
		c0.906,0,1.602-0.301,2.087-0.902c0.486-0.602,0.729-1.457,0.729-2.567c0-1.117-0.243-1.979-0.729-2.588
		C540.244,47.077,539.548,46.773,538.642,46.773z"/>
	<path fill="#00ABEC" d="M547.317,43.046c-0.377,0-0.699-0.122-0.967-0.367c-0.268-0.244-0.401-0.555-0.401-0.932
		s0.134-0.69,0.401-0.941s0.59-0.377,0.967-0.377c0.39,0,0.72,0.126,0.991,0.377c0.271,0.251,0.406,0.564,0.406,0.941
		c0,0.357-0.136,0.663-0.406,0.917C548.037,42.919,547.707,43.046,547.317,43.046z M548.457,55.329h-2.3V45.178h2.3V55.329z"/>
	<path fill="#00ABEC" d="M560.501,55.329h-2.3v-5.721c0-1.896-0.671-2.845-2.013-2.845c-0.7,0-1.278,0.263-1.734,0.788
		s-0.685,1.188-0.685,1.987v5.79h-2.31V45.178h2.31v1.685h0.04c0.76-1.281,1.857-1.923,3.291-1.923c1.104,0,1.946,0.358,2.528,1.075
		c0.581,0.718,0.872,1.754,0.872,3.108V55.329z"/>
	<path fill="#00ABEC" d="M568.662,55.22c-0.449,0.225-1.041,0.337-1.774,0.337c-1.97,0-2.955-0.944-2.955-2.835v-5.74h-1.694v-1.804
		h1.694v-2.35l2.301-0.654v3.004h2.429v1.804h-2.429v5.076c0,0.602,0.108,1.031,0.327,1.289c0.218,0.258,0.581,0.387,1.09,0.387
		c0.391,0,0.728-0.112,1.012-0.338V55.22z"/>
</g>
<g>
	<path fill="#00ABEC" d="M371.078,181.203c-2.05,0-3.69-0.665-4.923-1.993s-1.849-3.057-1.849-5.185
		c0-2.287,0.628-4.111,1.884-5.473s2.961-2.042,5.115-2.042c1.996,0,3.604,0.661,4.823,1.982c1.22,1.322,1.829,3.051,1.829,5.185
		c0,2.32-0.625,4.154-1.874,5.503C374.835,180.528,373.166,181.203,371.078,181.203z M371.187,168.582
		c-1.302,0-2.361,0.486-3.177,1.458c-0.816,0.972-1.225,2.25-1.225,3.837c0,1.579,0.396,2.852,1.189,3.816s1.831,1.447,3.113,1.447
		c1.361,0,2.436-0.459,3.222-1.378s1.18-2.204,1.18-3.856c0-1.698-0.382-3.011-1.145-3.936
		C373.581,169.045,372.528,168.582,371.187,168.582z"/>
	<path fill="#00ABEC" d="M386.196,173.004c-0.277-0.218-0.678-0.327-1.199-0.327c-0.681,0-1.249,0.308-1.705,0.922
		c-0.456,0.615-0.685,1.451-0.685,2.509v4.857h-2.3v-10.151h2.3v2.092h0.04c0.225-0.714,0.569-1.271,1.036-1.671
		c0.466-0.399,0.986-0.6,1.561-0.6c0.417,0,0.734,0.063,0.952,0.188V173.004z"/>
	<path fill="#00ABEC" d="M388.982,168.682c-0.377,0-0.699-0.122-0.967-0.367c-0.268-0.244-0.401-0.555-0.401-0.932
		s0.134-0.69,0.401-0.941s0.59-0.377,0.967-0.377c0.39,0,0.72,0.126,0.991,0.377c0.271,0.251,0.406,0.564,0.406,0.941
		c0,0.357-0.136,0.663-0.406,0.917C389.702,168.555,389.372,168.682,388.982,168.682z M390.122,180.965h-2.3v-10.151h2.3V180.965z"
		/>
	<path fill="#00ABEC" d="M402.365,180.152c0,3.728-1.873,5.591-5.621,5.591c-1.321,0-2.475-0.222-3.46-0.664v-2.102
		c1.11,0.635,2.165,0.951,3.163,0.951c2.412,0,3.618-1.187,3.618-3.559v-1.11h-0.039c-0.761,1.295-1.904,1.943-3.431,1.943
		c-1.236,0-2.232-0.451-2.989-1.354s-1.135-2.113-1.135-3.634c0-1.725,0.406-3.096,1.22-4.114c0.813-1.018,1.93-1.526,3.351-1.526
		c1.342,0,2.336,0.549,2.984,1.646h0.039v-1.407h2.3V180.152z M400.085,176.315v-1.318c0-0.714-0.236-1.324-0.708-1.829
		c-0.473-0.506-1.063-0.759-1.771-0.759c-0.872,0-1.555,0.322-2.047,0.967s-0.738,1.545-0.738,2.701
		c0,0.998,0.236,1.796,0.709,2.395c0.473,0.598,1.099,0.897,1.878,0.897c0.794,0,1.438-0.286,1.934-0.858
		C399.838,177.939,400.085,177.207,400.085,176.315z"/>
	<path fill="#00ABEC" d="M406.52,168.682c-0.377,0-0.699-0.122-0.967-0.367c-0.268-0.244-0.401-0.555-0.401-0.932
		s0.134-0.69,0.401-0.941s0.59-0.377,0.967-0.377c0.39,0,0.72,0.126,0.991,0.377c0.271,0.251,0.406,0.564,0.406,0.941
		c0,0.357-0.136,0.663-0.406,0.917C407.239,168.555,406.909,168.682,406.52,168.682z M407.659,180.965h-2.3v-10.151h2.3V180.965z"/>
	<path fill="#00ABEC" d="M419.704,180.965h-2.3v-5.721c0-1.896-0.671-2.845-2.013-2.845c-0.7,0-1.278,0.263-1.734,0.788
		s-0.685,1.188-0.685,1.987v5.79h-2.31v-10.151h2.31v1.685h0.04c0.76-1.281,1.857-1.923,3.291-1.923
		c1.104,0,1.946,0.358,2.528,1.075c0.581,0.718,0.872,1.754,0.872,3.108V180.965z"/>
	<path fill="#00ABEC" d="M364.033,204.764v-2.429c0.218,0.198,0.478,0.377,0.778,0.535c0.301,0.159,0.619,0.293,0.956,0.402
		c0.338,0.108,0.675,0.192,1.012,0.252s0.647,0.09,0.932,0.09c0.991,0,1.73-0.165,2.216-0.496c0.485-0.33,0.729-0.81,0.729-1.438
		c0-0.337-0.081-0.629-0.243-0.877c-0.161-0.248-0.388-0.475-0.679-0.68c-0.291-0.204-0.633-0.401-1.026-0.59
		c-0.393-0.188-0.814-0.385-1.264-0.59c-0.482-0.258-0.932-0.519-1.349-0.783c-0.416-0.264-0.778-0.557-1.085-0.877
		c-0.308-0.32-0.549-0.683-0.724-1.086c-0.176-0.402-0.263-0.875-0.263-1.417c0-0.668,0.15-1.248,0.451-1.74
		c0.3-0.492,0.697-0.898,1.189-1.22c0.492-0.32,1.052-0.559,1.681-0.714c0.627-0.155,1.269-0.232,1.923-0.232
		c1.487,0,2.571,0.168,3.252,0.506v2.329c-0.807-0.581-1.844-0.872-3.113-0.872c-0.351,0-0.699,0.033-1.046,0.099
		c-0.347,0.066-0.657,0.176-0.932,0.327c-0.274,0.152-0.498,0.348-0.669,0.585c-0.172,0.238-0.258,0.525-0.258,0.862
		c0,0.317,0.065,0.592,0.198,0.823c0.132,0.231,0.325,0.443,0.58,0.635c0.254,0.191,0.564,0.378,0.932,0.56
		c0.366,0.183,0.791,0.379,1.273,0.59c0.496,0.258,0.964,0.529,1.403,0.813s0.826,0.598,1.16,0.941
		c0.333,0.344,0.598,0.726,0.793,1.146c0.194,0.42,0.292,0.897,0.292,1.433c0,0.72-0.146,1.328-0.437,1.824
		c-0.29,0.495-0.682,0.898-1.175,1.209c-0.492,0.311-1.059,0.535-1.7,0.674c-0.641,0.14-1.318,0.209-2.032,0.209
		c-0.237,0-0.53-0.019-0.877-0.055s-0.702-0.09-1.065-0.159c-0.364-0.069-0.708-0.153-1.031-0.252
		C364.492,205.002,364.231,204.89,364.033,204.764z"/>
	<path fill="#00ABEC" d="M384.078,200.878h-6.919c0.026,0.938,0.315,1.662,0.867,2.171s1.31,0.764,2.275,0.764
		c1.084,0,2.078-0.324,2.983-0.972v1.854c-0.925,0.582-2.147,0.873-3.668,0.873c-1.493,0-2.665-0.461-3.515-1.384
		c-0.849-0.922-1.273-2.219-1.273-3.891c0-1.58,0.468-2.867,1.402-3.861c0.936-0.995,2.097-1.492,3.485-1.492
		c1.388,0,2.462,0.446,3.222,1.338c0.76,0.893,1.14,2.132,1.14,3.718V200.878z M381.857,199.252
		c-0.006-0.826-0.201-1.469-0.584-1.929c-0.384-0.459-0.912-0.688-1.587-0.688c-0.661,0-1.221,0.241-1.68,0.724
		c-0.46,0.482-0.742,1.113-0.848,1.894H381.857z"/>
	<path fill="#00ABEC" d="M392.158,197.368c-0.277-0.218-0.678-0.327-1.199-0.327c-0.681,0-1.249,0.308-1.705,0.922
		c-0.456,0.615-0.685,1.451-0.685,2.509v4.857h-2.3v-10.151h2.3v2.092h0.04c0.225-0.714,0.569-1.271,1.036-1.671
		c0.466-0.399,0.986-0.6,1.561-0.6c0.417,0,0.734,0.063,0.952,0.188V197.368z"/>
	<path fill="#00ABEC" d="M403.342,195.178l-3.926,10.151h-2.488l-3.738-10.151h2.499l2.25,7.098
		c0.172,0.522,0.277,0.979,0.317,1.368h0.029c0.06-0.489,0.152-0.932,0.278-1.328l2.359-7.138H403.342z"/>
	<path fill="#00ABEC" d="M413.334,200.878h-6.919c0.026,0.938,0.315,1.662,0.867,2.171s1.31,0.764,2.275,0.764
		c1.084,0,2.078-0.324,2.983-0.972v1.854c-0.925,0.582-2.147,0.873-3.668,0.873c-1.493,0-2.665-0.461-3.515-1.384
		c-0.849-0.922-1.273-2.219-1.273-3.891c0-1.58,0.468-2.867,1.402-3.861c0.936-0.995,2.097-1.492,3.485-1.492
		c1.388,0,2.462,0.446,3.222,1.338c0.76,0.893,1.14,2.132,1.14,3.718V200.878z M411.113,199.252
		c-0.006-0.826-0.201-1.469-0.584-1.929c-0.384-0.459-0.912-0.688-1.587-0.688c-0.661,0-1.221,0.241-1.68,0.724
		c-0.46,0.482-0.742,1.113-0.848,1.894H411.113z"/>
	<path fill="#00ABEC" d="M421.414,197.368c-0.277-0.218-0.678-0.327-1.199-0.327c-0.681,0-1.249,0.308-1.705,0.922
		c-0.456,0.615-0.685,1.451-0.685,2.509v4.857h-2.3v-10.151h2.3v2.092h0.04c0.225-0.714,0.569-1.271,1.036-1.671
		c0.466-0.399,0.986-0.6,1.561-0.6c0.417,0,0.734,0.063,0.952,0.188V197.368z"/>
</g>
</svg>